<?xml version="1.0" encoding="UTF-8" standalone="no"?>
<!-- Generator: visioncortex VTracer -->

<svg
   id="svg"
   version="1.1"
   style="display:block"
   viewBox="0 0 845.90649 578.76782"
   sodipodi:docname="speedrabbit.svg"
   width="845.90649"
   height="578.76782"
   inkscape:version="1.4.3 (0d15f75042, 2025-12-25)"
   xmlns:inkscape="http://www.inkscape.org/namespaces/inkscape"
   xmlns:sodipodi="http://sodipodi.sourceforge.net/DTD/sodipodi-0.dtd"
   xmlns="http://www.w3.org/2000/svg"
   xmlns:svg="http://www.w3.org/2000/svg">
  <defs
     id="defs2" />
  <sodipodi:namedview
     id="namedview2"
     pagecolor="#ffffff"
     bordercolor="#000000"
     borderopacity="0.25"
     inkscape:showpageshadow="2"
     inkscape:pageopacity="0.0"
     inkscape:pagecheckerboard="0"
     inkscape:deskcolor="#d1d1d1"
     showgrid="false"
     inkscape:zoom="1.1925831"
     inkscape:cx="449.44458"
     inkscape:cy="312.34721"
     inkscape:window-width="2560"
     inkscape:window-height="1412"
     inkscape:window-x="0"
     inkscape:window-y="0"
     inkscape:window-maximized="1"
     inkscape:current-layer="svg" />
  <path
     d="m 649.46899,0.453125 c 0.93071,-0.10183594 1.86141,-0.20367187 2.82032,-0.30859375 1.09054,-0.0425391 2.18109,-0.08507813 3.30468,-0.12890625 0.57895,-0.005156 1.1579,-0.0103125 1.7544,-0.015625 0.5812,0.0167578 1.16241,0.0335156 1.76123,0.0507813 1.10859,0.13277339 2.21719,0.26554682 3.35937,0.4023437 0.8611,0.34933594 1.72219,0.6986719 2.60938,1.0585937 1.12148,0.7134961 1.12148,0.7134961 2.26562,1.4414063 0.71028,0.5581641 1.42055,1.1163281 2.15235,1.6914062 0.97646,0.895254 0.97646,0.895254 1.97265,1.8085938 0.57879,0.5452734 1.15758,1.0905469 1.75391,1.6523437 0.55559,0.5891016 1.11117,1.1782032 1.68359,1.7851563 0.83918,1.022871 0.83918,1.022871 1.69532,2.066406 0.61617,0.823711 1.23234,1.647422 1.86718,2.496094 0.5506,0.759661 0.5506,0.759661 1.11231,1.534668 0.39349,0.554458 0.78697,1.108916 1.19238,1.680176 0.40799,0.588537 0.81598,1.177075 1.23633,1.783447 0.41959,0.619314 0.83918,1.238628 1.27148,1.876709 0.42475,0.643162 0.8495,1.286323 1.28711,1.948975 0.42862,0.663947 0.85723,1.327895 1.29883,2.011962 0.64727,1.024322 0.64727,1.024322 1.30762,2.069336 0.427,0.69126 0.854,1.38252 1.29394,2.094727 0.41154,0.683525 0.82307,1.367051 1.24707,2.071289 0.6086,1.035923 0.6086,1.035923 1.2295,2.092773 0.40565,0.706246 0.8113,1.412491 1.22925,2.140137 0.40645,0.724614 0.81291,1.449229 1.23168,2.195801 0.40968,0.749106 0.81936,1.498213 1.24146,2.27002 0.41403,0.771987 0.82806,1.543974 1.25464,2.339355 0.41878,0.794707 0.83757,1.589414 1.26904,2.408203 0.42813,0.819199 0.85626,1.638399 1.29736,2.482422 0.44489,0.84498 0.88978,1.689961 1.34815,2.560547 0.45359,0.872051 0.90718,1.744101 1.37451,2.642578 0.45746,0.901296 0.91491,1.802593 1.38623,2.731201 0.45907,0.929173 0.91814,1.858345 1.39111,2.815674 0.45649,0.95302 0.91298,1.90604 1.38331,2.887939 0.45487,0.987019 0.90975,1.974039 1.37841,2.990967 0.45295,1.024966 0.90589,2.049932 1.37256,3.105957 0.33835,0.795825 0.33835,0.795825 0.68353,1.607727 0.22513,0.546946 0.45025,1.093891 0.68219,1.65741 0.22513,0.570148 0.45025,1.140297 0.68219,1.727722 0.22428,0.58598 0.44856,1.171959 0.67963,1.775696 0.33429,0.895964 0.33429,0.895964 0.67534,1.810028 0.33159,0.910254 0.33159,0.910254 0.66988,1.838898 0.21868,0.61304 0.43736,1.226079 0.66267,1.857696 0.32444,0.928956 0.32444,0.928956 0.65544,1.876679 0.3206,0.937551 0.3206,0.937551 0.64768,1.894043 0.21109,0.629223 0.42218,1.258447 0.63967,1.906738 0.2086,0.631963 0.4172,1.263926 0.63212,1.915039 0.20527,0.633897 0.41054,1.267793 0.62203,1.920898 0.20124,0.634713 0.40248,1.269425 0.60982,1.923371 0.197,0.635014 0.394,1.270029 0.59697,1.924286 0.28904,0.953126 0.28904,0.953126 0.58391,1.925506 0.18726,0.63286 0.37452,1.265719 0.56746,1.917755 0.27185,0.94296 0.27185,0.94296 0.54919,1.904969 0.17358,0.620623 0.34716,1.241246 0.526,1.880681 0.16327,0.60644 0.32654,1.21289 0.49476,1.83771 0.15545,0.5977 0.3109,1.1954 0.47106,1.81122 0.14913,0.59202 0.29825,1.18404 0.45189,1.794 0.14318,0.58731 0.28635,1.17462 0.43386,1.77973 0.13805,0.58489 0.27611,1.16978 0.41835,1.7724 0.13305,0.58154 0.2661,1.16309 0.40318,1.76226 0.12815,0.57797 0.2563,1.15593 0.38834,1.75141 0.1241,0.57462 0.2482,1.14924 0.37606,1.74127 0.12129,0.57107 0.24257,1.14215 0.36753,1.73053 0.11743,0.56862 0.23487,1.13723 0.35586,1.72308 0.22148,1.13293 0.44296,2.26585 0.67115,3.43311 0.20318,1.12712 0.40637,2.25425 0.61572,3.41553 0.27336,1.70663 0.27336,1.70663 0.55224,3.44775 0.0804,0.58622 0.16077,1.17244 0.2436,1.77643 0.0748,0.5915 0.14957,1.183 0.22662,1.79242 0.0704,0.59098 0.14072,1.18197 0.21321,1.79086 0.0671,0.58899 0.13417,1.17798 0.20329,1.78482 0.0659,0.58456 0.13184,1.16912 0.19976,1.77139 0.0946,0.86582 0.0946,0.86582 0.19111,1.74912 0.11465,1.12116 0.22929,2.24232 0.34741,3.39746 0.0869,1.03995 0.17387,2.0799 0.26343,3.15137 0.091,0.9929 0.18192,1.9858 0.27564,3.00879 0.11061,0.95825 0.22123,1.91651 0.3352,2.9038 0.16524,0.94826 0.33049,1.89653 0.50073,2.87353 0.28062,0.99081 0.56123,1.98161 0.85035,3.00244 0.5014,1.44319 0.5014,1.44319 1.01294,2.91553 0.35481,0.89839 0.70962,1.79679 1.07519,2.72241 0.3503,0.77868 0.70061,1.55735 1.06152,2.35962 0.57879,0.99516 1.15758,1.99031 1.75391,3.01563 0.59684,0.73734 1.19367,1.47469 1.80859,2.23437 0.71028,0.82242 1.42055,1.64484 2.15235,2.49219 0.7541,0.74508 1.5082,1.49015 2.28515,2.25781 0.72317,0.58008 1.44633,1.16016 2.19141,1.75781 0.80309,0.53367 1.60617,1.06735 2.43359,1.61719 0.93586,0.55301 1.87172,1.10602 2.83594,1.67578 0.54366,0.30245 1.08733,0.6049 1.64746,0.91651 0.62423,0.34079 1.24846,0.68159 1.8916,1.03271 0.75056,0.40912 1.50111,0.81823 2.27441,1.23975 1.24476,0.67603 1.24476,0.67603 2.51465,1.36572 0.88059,0.47703 1.76118,0.95407 2.66846,1.44556 1.38228,0.74818 1.38228,0.74818 2.79248,1.51147 0.94343,0.50974 1.88687,1.01949 2.85889,1.54468 0.96438,0.52408 1.92876,1.04817 2.92236,1.58813 0.98227,0.53916 1.96453,1.07831 2.97656,1.63379 1.48114,0.8271 1.48114,0.8271 2.99219,1.6709 0.97711,0.56171 1.95422,1.12342 2.96094,1.70215 0.97195,0.57009 1.9439,1.14017 2.94531,1.72754 0.96744,0.57645 1.93488,1.1529 2.93164,1.74682 0.961,0.58113 1.92199,1.16225 2.91211,1.76099 0.95584,0.58435 1.91168,1.1687 2.89648,1.77075 0.94166,0.58483 1.88332,1.16967 2.85352,1.77222 0.92168,0.58314 1.84336,1.16628 2.79297,1.76709 0.89332,0.5783 1.78664,1.15661 2.70703,1.75244 0.85207,0.56928 1.70414,1.13856 2.58203,1.7251 0.81856,0.56122 1.63711,1.12245 2.48047,1.70068 0.78794,0.55245 1.57588,1.1049 2.3877,1.67407 0.75893,0.54455 1.51787,1.0891 2.2998,1.65015 0.73573,0.54004 1.47146,1.08007 2.22949,1.63647 1.05429,0.79097 1.05429,0.79097 2.12988,1.59791 0.66581,0.51112 1.33161,1.02223 2.01758,1.54883 0.61811,0.48405 1.23621,0.96808 1.87305,1.4668 0.55107,0.43764 1.10215,0.87527 1.66992,1.32617 0.75894,0.61972 0.75894,0.61972 1.5332,1.25195 0.47502,0.40283 0.95004,0.80566 1.43946,1.2207 0.44795,0.39638 0.8959,0.79277 1.35742,1.20117 0.42732,0.39639 0.85465,0.79277 1.29492,1.20117 0.41315,0.40283 0.82629,0.80567 1.25195,1.2207 0.40284,0.41315 0.80567,0.82629 1.22071,1.25196 0.4067,0.43763 0.8134,0.87527 1.23242,1.32617 0.64872,0.72606 0.64872,0.72606 1.31055,1.4668 0.43892,0.51111 0.87785,1.02222 1.33007,1.54882 0.43434,0.52715 0.86867,1.0543 1.31617,1.59742 0.42676,0.54019 0.85352,1.08039 1.29321,1.63696 0.6179,0.819 0.6179,0.819 1.24829,1.65454 0.59833,0.83036 0.59833,0.83036 1.20874,1.67749 0.38624,0.56155 0.77247,1.1231 1.17041,1.70166 0.37045,0.56638 0.74089,1.13277 1.12256,1.71631 0.35111,0.56767 0.70222,1.13534 1.06396,1.72021 0.50008,0.85586 0.50008,0.85586 1.01026,1.72901 0.31606,0.57315 0.63212,1.1463 0.95776,1.73682 0.29882,0.57798 0.59764,1.15596 0.90552,1.75146 0.28271,0.5883 0.56542,1.17659 0.85669,1.78271 0.26385,0.58862 0.52771,1.17724 0.79956,1.7837 0.36545,0.87809 0.36545,0.87809 0.73828,1.77392 0.22043,0.56833 0.44086,1.13664 0.66797,1.72217 0.54141,1.56041 0.54141,1.56041 1.09375,3.15234 0.41766,1.59522 0.41766,1.59522 0.84375,3.22266 0.1115,0.55237 0.22301,1.10474 0.33789,1.67383 0.0948,0.59103 0.18949,1.18208 0.28711,1.79101 0.0786,0.64051 0.15727,1.28101 0.23828,1.94092 0.0657,0.73235 0.13149,1.4647 0.19922,2.21924 0.058,0.89606 0.11602,1.79212 0.17578,2.71533 0.0451,0.98211 0.0902,1.96421 0.13672,2.97609 0.0292,1.0181 0.0585,2.03622 0.0886,3.08519 0.018,1.56464 0.018,1.56464 0.0364,3.16089 -0.008,1.0489 -0.016,2.09779 -0.0242,3.17847 -0.0268,1.02907 -0.0537,2.05816 -0.0813,3.11841 -0.0456,0.99581 -0.0912,1.9916 -0.13818,3.01758 -0.096,1.36029 -0.096,1.36029 -0.19385,2.74804 -0.0807,0.72896 -0.16146,1.45793 -0.24463,2.20898 -0.10103,0.63745 -0.20206,1.2749 -0.30615,1.93165 -0.18659,0.89852 -0.18659,0.89852 -0.37695,1.81518 -0.2214,0.85719 -0.2214,0.85719 -0.44727,1.73169 -0.16951,0.56696 -0.33902,1.13389 -0.51367,1.71803 -0.19787,0.57903 -0.39574,1.15805 -0.59961,1.75464 -0.22897,0.59957 -0.45794,1.19914 -0.69385,1.81689 -0.2699,0.66757 -0.53979,1.33515 -0.81787,2.02294 -0.49186,1.21599 -0.49186,1.21599 -0.99365,2.45655 -0.3669,0.8793 -0.7338,1.7586 -1.11182,2.66455 -0.59071,1.35364 -0.59071,1.35364 -1.19336,2.73462 -0.62552,1.3708 -0.62552,1.3708 -1.26367,2.76929 -0.43377,0.90162 -0.86754,1.80324 -1.31445,2.73218 -0.44666,0.87986 -0.89332,1.75973 -1.35352,2.66626 -0.68522,1.27762 -0.68522,1.27762 -1.38428,2.58105 -0.45713,0.79052 -0.91426,1.58104 -1.38525,2.39551 -0.44295,0.67966 -0.88591,1.35932 -1.34229,2.05957 -0.44005,0.61198 -0.8801,1.22397 -1.33349,1.85449 -0.4432,0.56888 -0.88639,1.13776 -1.34302,1.72388 -0.44755,0.53198 -0.89509,1.06396 -1.3562,1.61206 -0.45593,0.51071 -0.91185,1.02142 -1.38159,1.54761 -0.46189,0.48573 -0.92378,0.97147 -1.39966,1.47192 -0.46664,0.45971 -0.93328,0.91943 -1.41406,1.39307 -0.4718,0.44134 -0.9436,0.88268 -1.42969,1.3374 -0.71543,0.64848 -0.71543,0.64848 -1.44531,1.31006 -0.48211,0.41717 -0.96422,0.83434 -1.46094,1.26416 -0.48702,0.39896 -0.97405,0.79793 -1.47583,1.20898 -0.49266,0.38092 -0.98533,0.76184 -1.49292,1.1543 -0.49975,0.36158 -0.99951,0.72316 -1.5144,1.0957 -0.50443,0.34354 -1.00886,0.68707 -1.52857,1.04102 -0.50837,0.32661 -1.01675,0.65323 -1.54053,0.98974 -0.76304,0.46334 -0.76304,0.46334 -1.5415,0.93604 -1.51014,0.84498 -1.51014,0.84498 -3.05078,1.70703 -1.03512,0.50918 -2.07024,1.01836 -3.13672,1.54297 -0.79773,0.35421 -0.79773,0.35421 -1.61157,0.71558 -0.54842,0.22792 -1.09683,0.45584 -1.66187,0.69067 -0.56815,0.22172 -1.13631,0.44344 -1.72168,0.67187 -0.59973,0.22172 -1.19947,0.44344 -1.81738,0.67188 -0.6513,0.23203 -1.3026,0.46406 -1.97363,0.70312 -0.68159,0.23204 -1.36319,0.46407 -2.06543,0.70313 -0.70875,0.22655 -1.41749,0.45311 -2.14771,0.68652 -0.70149,0.21689 -1.40298,0.43377 -2.12573,0.65723 -0.62608,0.19884 -1.25216,0.39768 -1.89722,0.60254 -0.6488,0.18788 -1.2976,0.37576 -1.96606,0.56933 -0.72462,0.17878 -1.44923,0.35756 -2.1958,0.54175 -0.86738,0.17701 -1.73476,0.35401 -2.62842,0.53638 -1.69359,0.28581 -1.69359,0.28581 -3.42139,0.57739 -0.94186,0.13915 -0.94186,0.13915 -1.90275,0.28112 -0.66003,0.0892 -1.32005,0.17846 -2.00008,0.2704 -1.02176,0.12702 -1.02176,0.12702 -2.06416,0.2566 -0.70481,0.0776 -1.40962,0.15516 -2.13579,0.2351 -0.72851,0.0692 -1.45702,0.13837 -2.20761,0.20965 -0.74851,0.056 -1.49703,0.11203 -2.26822,0.16974 -0.76535,0.0351 -1.5307,0.0701 -2.31924,0.10626 -0.78064,0.0218 -1.56128,0.0436 -2.36557,0.0661 -0.79405,0.0133 -1.5881,0.0265 -2.40621,0.0402 -0.80528,0.006 -1.61055,0.0118 -2.44023,0.0179 -0.8145,0.001 -1.629,0.002 -2.46819,0.003 -0.82131,-0.003 -1.64263,-0.006 -2.48884,-0.009 -0.8258,-0.006 -1.65161,-0.0124 -2.50244,-0.0188 -0.82806,-0.006 -1.65612,-0.0121 -2.50928,-0.0183 -0.82806,-7.3e-4 -1.65612,-10e-4 -2.50927,-0.002 -1.23871,1.2e-4 -1.23871,1.2e-4 -2.50244,2.5e-4 -0.81995,-0.002 -1.63989,-0.004 -2.48468,-0.006 -1.22382,-0.006 -1.22382,-0.006 -2.47236,-0.012 -0.81764,-0.007 -1.63529,-0.0138 -2.47772,-0.021 -0.80367,-0.0109 -1.60734,-0.0218 -2.43536,-0.033 -0.78339,-0.0152 -1.56678,-0.0304 -2.3739,-0.046 -1.11091,-0.0336 -1.11091,-0.0336 -2.24427,-0.068 -0.65778,-0.0346 -1.31556,-0.0692 -1.99328,-0.10483 -0.93193,-0.0616 -0.93193,-0.0616 -1.88269,-0.12442 -0.92308,-0.0657 -0.92308,-0.0657 -1.86481,-0.13278 -0.92495,-0.0683 -0.92495,-0.0683 -1.86859,-0.13797 -0.62904,-0.0455 -1.25809,-0.0911 -1.90619,-0.13797 -0.99003,-0.0657 -0.99003,-0.0657 -2.00006,-0.13278 -1.05139,-0.0616 -1.05139,-0.0616 -2.12402,-0.12442 -0.77889,-0.0342 -1.55781,-0.0688 -2.36033,-0.10445 -1.3743,-0.0336 -1.3743,-0.0336 -2.77636,-0.068 -0.99677,-0.0152 -1.99354,-0.0304 -3.02051,-0.046 -1.04398,-0.0109 -2.08796,-0.0218 -3.16357,-0.033 -1.0804,-0.007 -2.1608,-0.0138 -3.27393,-0.021 -1.09393,-0.004 -2.18786,-0.008 -3.31494,-0.012 -1.66555,-0.003 -1.66555,-0.003 -3.36475,-0.006 -1.12567,8e-5 -2.25135,1.6e-4 -3.41113,2.5e-4 -1.13019,-7.3e-4 -2.26037,-10e-4 -3.42481,-0.002 -1.12309,-0.006 -2.24619,-0.0121 -3.40332,-0.0183 -1.11729,-0.006 -2.23459,-0.0124 -3.38574,-0.0188 -1.11001,-0.003 -2.22003,-0.006 -3.36368,-0.009 -1.09944,9.1e-4 -2.19887,0.002 -3.33163,0.003 -1.08744,0.005 -2.17487,0.0102 -3.29526,0.0154 -1.06836,0.0126 -2.13672,0.0253 -3.23746,0.0383 -1.56581,0.0324 -1.56581,0.0324 -3.16326,0.0655 -1.51948,0.0555 -1.51948,0.0555 -3.06965,0.11165 -1.46025,0.093 -1.46025,0.093 -2.95001,0.18787 -1.40267,0.11438 -1.40267,0.11438 -2.83368,0.23108 -1.34907,0.12626 -1.34907,0.12626 -2.7254,0.25505 -0.85036,0.0882 -1.70072,0.17649 -2.57684,0.26741 -0.7785,0.0851 -1.55699,0.17012 -2.35907,0.25776 -0.73793,0.0858 -1.47586,0.17164 -2.23615,0.26006 -0.71038,0.0879 -1.42077,0.17586 -2.15268,0.26646 -0.71483,0.0905 -1.42967,0.18106 -2.16617,0.27431 -0.77904,0.0957 -1.55809,0.19144 -2.36074,0.29005 -0.77299,0.0959 -1.54597,0.19174 -2.34238,0.29053 -0.73286,0.0938 -1.46572,0.18768 -2.2208,0.28437 -0.64385,0.0858 -1.28771,0.17164 -1.95108,0.26006 -1.25997,0.19106 -1.25997,0.19106 -2.54541,0.38599 -0.69915,0.12657 -1.39831,0.25314 -2.11865,0.38354 -0.84595,0.16194 -1.69189,0.32387 -2.56347,0.49072 -1.43425,0.3043 -1.43425,0.3043 -2.89747,0.61475 -0.84129,0.19333 -0.84129,0.19333 -1.69958,0.39056 -0.59897,0.1423 -1.19794,0.2846 -1.81506,0.43122 -0.62201,0.15138 -1.24401,0.30277 -1.88486,0.45874 -0.63902,0.15879 -1.27805,0.31759 -1.93643,0.4812 -0.64458,0.16298 -1.28917,0.32596 -1.95328,0.4939 -0.65141,0.16748 -1.30282,0.33499 -1.97397,0.50756 -0.9855,0.2575 -0.9855,0.2575 -1.9909,0.52021 -0.65866,0.1746 -1.31731,0.34921 -1.99592,0.52911 -0.65752,0.17654 -1.31504,0.35308 -1.99249,0.53497 -0.97752,0.2662 -0.97752,0.2662 -1.97479,0.53778 -0.64063,0.17717 -1.28127,0.35433 -1.94132,0.53687 -0.94243,0.26478 -0.94243,0.26478 -1.9039,0.53491 -0.92563,0.2643 -0.92563,0.2643 -1.86996,0.53394 -0.89001,0.25898 -0.89001,0.25898 -1.798,0.52319 -1.07895,0.32533 -2.15789,0.65065 -3.26954,0.98584 -0.83144,0.27248 -1.66289,0.54495 -2.51953,0.82568 -0.6948,0.24702 -1.38961,0.49404 -2.10547,0.74854 -0.93743,0.35687 -0.93743,0.35687 -1.89379,0.72095 -0.5713,0.23259 -1.1426,0.46519 -1.73121,0.70483 -0.5526,0.23582 -1.10521,0.47164 -1.67456,0.7146 -0.81658,0.3617 -0.81658,0.3617 -1.64965,0.73071 -0.54318,0.24782 -1.08636,0.49565 -1.646,0.75098 -0.58733,0.26522 -1.17466,0.53045 -1.77979,0.80371 -0.69947,0.29874 -1.39895,0.59748 -2.11962,0.90527 -1.12608,0.47615 -1.12608,0.47615 -2.27491,0.96192 -0.76683,0.32766 -1.53366,0.65532 -2.32373,0.99292 -0.7736,0.33491 -1.54719,0.66983 -2.34424,1.01489 -0.75813,0.33556 -1.51626,0.67112 -2.29736,1.01685 -0.7462,0.33862 -1.49241,0.67724 -2.26123,1.02612 -0.7346,0.34208 -1.46921,0.68417 -2.22607,1.03662 -0.71044,0.34499 -1.42087,0.68997 -2.15284,1.04541 -0.67047,0.34885 -1.34094,0.69771 -2.03173,1.05713 -0.64051,0.34853 -1.28101,0.69706 -1.94092,1.05615 -0.61416,0.34418 -1.22832,0.68836 -1.86109,1.04297 -0.59112,0.34031 -1.18223,0.68063 -1.79126,1.03125 -0.57758,0.33902 -1.15516,0.67805 -1.75024,1.02734 -0.82359,0.49114 -0.82359,0.49114 -1.66382,0.99219 -0.97711,0.59168 -1.95422,1.18336 -2.96094,1.79297 -1.06348,0.62455 -1.06348,0.62455 -2.14844,1.26172 -0.61101,0.36738 -1.22203,0.73476 -1.85156,1.11328 -0.59039,0.37125 -1.18078,0.7425 -1.78906,1.125 -0.72961,0.495 -1.45922,0.99 -2.21094,1.5 -0.54753,0.39574 -1.09506,0.79148 -1.65918,1.19922 -0.6152,0.44988 -1.23041,0.89976 -1.86426,1.36328 -0.63293,0.461 -1.26586,0.922 -1.91797,1.39697 -0.63808,0.46713 -1.27617,0.93425 -1.93359,1.41553 -0.62004,0.46583 -1.24008,0.93167 -1.87891,1.41162 -0.58394,0.42878 -1.16789,0.85755 -1.76953,1.29932 -0.52513,0.39236 -1.05026,0.78471 -1.59131,1.18896 -0.45713,0.23928 -0.91426,0.47857 -1.38525,0.7251 -0.66,-0.33 -1.32,-0.66 -2,-1 -0.0644,-0.68892 -0.12891,-1.37785 -0.19531,-2.08765 0.0348,-1.3778 0.0348,-1.3778 0.0703,-2.78344 0.017,-1.03633 0.034,-2.07266 0.0515,-3.14038 0.0242,-1.13059 0.0485,-2.26118 0.0735,-3.42603 0.007,-0.57751 0.0144,-1.15502 0.0219,-1.75003 0.005,-0.58595 0.01,-1.1719 0.0145,-1.7756 0.003,-0.59499 0.006,-1.18998 0.01,-1.803 0.002,-0.60311 0.003,-1.20623 0.005,-1.82762 10e-4,-0.61315 0.002,-1.22629 0.003,-1.85802 -0.002,-0.92299 -0.002,-0.92299 -0.005,-1.86464 -0.005,-0.61295 -0.0106,-1.22589 -0.0161,-1.85742 -0.0165,-0.90395 -0.0165,-0.90395 -0.0333,-1.82617 -0.0459,-1.14598 -0.0918,-2.29195 -0.13916,-3.47266 -0.0636,-1.11246 -0.1273,-2.22492 -0.19287,-3.37109 -0.11167,-1.64247 -0.11167,-1.64247 -0.22559,-3.31812 -0.12616,-1.62143 -0.12616,-1.62143 -0.25488,-3.27563 -0.13583,-1.62627 -0.13583,-1.62627 -0.27441,-3.2854 -0.0964,-1.06211 -0.19272,-2.12421 -0.292,-3.21851 -0.10199,-1.02754 -0.20399,-2.05508 -0.30908,-3.11377 -0.10296,-0.97179 -0.20593,-1.94358 -0.31201,-2.94482 -0.0965,-0.87769 -0.19304,-1.75538 -0.29248,-2.65967 -0.1472,-1.23387 -0.1472,-1.23387 -0.29736,-2.49267 -0.10506,-0.79189 -0.21012,-1.58378 -0.31836,-2.39966 -0.1128,-0.76659 -0.22559,-1.53318 -0.3418,-2.323 -0.18272,-1.12765 -0.18272,-1.12765 -0.36914,-2.27808 -0.13471,-0.74612 -0.26941,-1.49225 -0.4082,-2.26098 -0.14937,-0.7454 -0.29874,-1.4908 -0.45264,-2.25879 -0.17161,-0.76796 -0.34321,-1.53592 -0.52002,-2.32715 -0.30962,-1.24088 -0.30962,-1.24088 -0.62549,-2.50684 -0.228,-0.8511 -0.456,-1.7022 -0.69092,-2.5791 -0.24121,-0.85328 -0.48243,-1.70656 -0.73095,-2.58569 -0.2525,-0.85086 -0.50499,-1.70172 -0.76514,-2.57837 -0.26023,-0.83862 -0.52046,-1.67723 -0.78857,-2.54126 -0.26442,-0.82041 -0.52884,-1.64082 -0.80127,-2.48608 -0.26668,-0.79906 -0.53335,-1.59812 -0.80811,-2.42139 -0.26055,-0.75942 -0.5211,-1.51884 -0.78955,-2.30127 -0.24122,-0.6911 -0.48243,-1.3822 -0.73096,-2.09424 -0.23445,-0.65081 -0.46889,-1.30163 -0.71045,-1.97217 -0.23501,-0.62737 -0.47002,-1.25474 -0.71215,-1.90112 -0.23808,-0.60884 -0.47615,-1.21768 -0.72144,-1.84497 -0.36968,-0.90069 -0.36968,-0.90069 -0.74683,-1.81958 -0.2537,-0.59321 -0.5074,-1.18642 -0.76879,-1.79761 -0.26104,-0.58749 -0.52208,-1.17498 -0.79102,-1.78027 -0.27006,-0.59071 -0.54012,-1.18143 -0.81836,-1.79004 -0.28037,-0.60618 -0.56074,-1.21236 -0.84961,-1.83691 -0.29197,-0.61328 -0.58394,-1.22655 -0.88476,-1.8584 -0.30632,-0.61746 -0.61263,-1.23492 -0.92823,-1.8711 -0.31759,-0.61746 -0.63518,-1.23492 -0.9624,-1.87109 -0.32146,-0.60715 -0.64292,-1.2143 -0.97412,-1.83984 -0.51168,-0.91846 -0.51168,-0.91846 -1.03369,-1.85547 -0.36642,-0.62294 -0.73283,-1.24588 -1.11035,-1.8877 -0.41476,-0.65323 -0.82952,-1.30646 -1.25684,-1.97949 -0.75749,-1.0804 -0.75749,-1.0804 -1.53027,-2.18262 -0.54431,-0.74153 -1.08862,-1.48306 -1.64942,-2.24707 -0.8225,-1.09743 -0.8225,-1.09743 -1.66162,-2.21704 -0.54737,-0.7147 -1.09473,-1.42941 -1.65869,-2.16577 -0.54092,-0.68828 -1.08185,-1.37656 -1.63916,-2.08569 -0.50064,-0.63817 -1.00128,-1.27634 -1.51709,-1.93384 -0.45182,-0.56437 -0.90363,-1.12874 -1.36914,-1.71021 -0.32162,-0.48106 -0.64324,-0.96212 -0.97461,-1.45776 0,-0.66 0,-1.32 0,-2 -0.99,-0.33 -1.98,-0.66 -3,-1 -0.61875,-0.9075 -1.2375,-1.815 -1.875,-2.75 -0.34547,-0.54527 -0.69094,-1.09055 -1.04687,-1.65234 -0.35579,-0.52723 -0.71157,-1.05446 -1.07813,-1.59766 -0.70125,-0.76313 -1.4025,-1.52625 -2.125,-2.3125 -0.42668,-0.40477 -0.85336,-0.80953 -1.29297,-1.22656 -0.52207,-0.48211 -1.04414,-0.96422 -1.58203,-1.46094 -1.01514,-0.97066 -1.01514,-0.97066 -2.05078,-1.96094 -0.78762,-0.73476 -1.57524,-1.46953 -2.38672,-2.22656 -0.42104,-0.38172 -0.84208,-0.76345 -1.27588,-1.15674 -0.44392,-0.39171 -0.88784,-0.78343 -1.34521,-1.18701 -0.46906,-0.40219 -0.93812,-0.80438 -1.42139,-1.21875 -0.50161,-0.4125 -1.00321,-0.825 -1.52002,-1.25 -0.82395,-0.63809 -0.82395,-0.63809 -1.66455,-1.28906 -0.86408,-0.64582 -0.86408,-0.64582 -1.74561,-1.30469 -0.58765,-0.42918 -1.1753,-0.85835 -1.78076,-1.30054 -0.597,-0.42676 -1.19399,-0.85352 -1.80908,-1.29321 -0.60473,-0.42483 -1.20946,-0.84965 -1.83252,-1.28735 -0.89308,-0.61767 -0.89308,-0.61767 -1.8042,-1.24781 -0.57798,-0.39332 -1.15597,-0.78665 -1.75146,-1.19189 -0.5319,-0.3582 -1.0638,-0.7164 -1.61182,-1.08545 -0.83145,-0.55559 -1.66289,-1.11117 -2.51953,-1.68359 -0.75668,-0.47567 -1.51336,-0.95133 -2.29297,-1.44141 -0.79148,-0.45762 -1.58297,-0.91523 -2.39844,-1.38672 -0.92039,-0.49113 -1.84078,-0.98226 -2.78906,-1.48828 -0.58556,-0.30116 -1.17111,-0.60231 -1.77441,-0.9126 -0.64421,-0.32404 -1.28842,-0.64807 -1.95215,-0.98193 -0.67869,-0.33355 -1.35739,-0.66709 -2.05664,-1.01074 -0.71092,-0.34064 -1.42184,-0.68127 -2.1543,-1.03223 -1.10505,-0.51289 -1.10505,-0.51289 -2.23242,-1.03613 -0.75088,-0.33999 -1.50176,-0.67998 -2.27539,-1.03028 -0.76087,-0.3366 -1.52174,-0.67321 -2.30567,-1.02002 -0.74217,-0.3221 -1.48435,-0.6442 -2.24902,-0.97607 -1.01272,-0.43482 -1.01272,-0.43482 -2.0459,-0.87842 -0.6629,-0.27602 -1.3258,-0.55204 -2.00879,-0.83642 -1.03229,-0.41113 -1.03229,-0.41113 -2.08545,-0.83057 -0.71688,-0.27376 -1.43376,-0.54753 -2.17236,-0.82959 -0.74911,-0.27634 -1.49821,-0.55269 -2.27002,-0.8374 -0.81839,-0.28698 -1.63679,-0.57396 -2.47998,-0.86963 -0.90363,-0.30116 -1.80727,-0.60232 -2.73828,-0.9126 -1.05574,-0.33177 -2.11149,-0.66354 -3.19922,-1.00537 -0.95278,-0.28421 -0.95278,-0.28421 -1.9248,-0.57416 -1.02916,-0.30046 -1.02916,-0.30046 -2.07911,-0.60699 -0.71869,-0.2068 -1.43738,-0.41359 -2.17785,-0.62665 -0.7444,-0.21167 -1.48879,-0.42334 -2.25574,-0.64142 -0.75696,-0.21344 -1.51392,-0.42688 -2.29382,-0.64679 -0.76994,-0.21533 -1.53987,-0.43067 -2.33313,-0.65253 -0.78109,-0.21682 -1.56219,-0.43364 -2.36695,-0.65704 -1.17864,-0.32517 -1.17864,-0.32517 -2.3811,-0.65692 -0.78383,-0.21517 -1.56766,-0.43035 -2.37524,-0.65204 -1.17067,-0.31992 -1.17067,-0.31992 -2.36499,-0.6463 -0.77397,-0.2107 -1.54793,-0.4214 -2.34534,-0.63849 -0.76583,-0.20776 -1.53165,-0.41552 -2.32068,-0.62958 -0.75841,-0.20502 -1.51682,-0.41004 -2.29822,-0.62127 -0.74077,-0.19991 -1.48153,-0.39981 -2.24475,-0.60578 -0.71736,-0.19346 -1.43473,-0.38692 -2.17383,-0.58624 -1.0219,-0.27611 -1.0219,-0.27611 -2.06445,-0.5578 -0.62455,-0.16989 -1.2491,-0.33979 -1.89258,-0.51483 -0.58588,-0.15995 -1.17176,-0.31989 -1.77539,-0.48468 -1.08926,-0.29794 -2.17851,-0.59587 -3.30078,-0.90283 -1.00571,-0.27514 -2.01142,-0.55027 -3.04761,-0.83374 -0.92272,-0.2521 -1.84545,-0.50419 -2.79614,-0.76392 -0.85118,-0.23082 -1.70237,-0.46165 -2.57935,-0.69946 -0.78463,-0.21262 -1.56927,-0.42523 -2.37768,-0.64429 -0.72051,-0.19521 -1.44101,-0.39042 -2.18335,-0.59155 -0.67555,-0.18635 -1.3511,-0.3727 -2.04712,-0.5647 -0.66073,-0.19215 -1.32145,-0.3843 -2.0022,-0.58228 -0.61544,-0.18038 -1.23089,-0.36077 -1.86499,-0.54663 -1.03383,-0.28746 -2.06765,-0.57492 -3.13281,-0.87109 -1.09312,-0.14438 -2.18625,-0.28875 -3.3125,-0.4375 -0.57234,0.0232 -1.14469,0.0464 -1.73437,0.0703 -0.64454,0.12117 -1.28907,0.24235 -1.95313,0.36719 -0.80953,0.26555 -1.61906,0.53109 -2.45312,0.80469 -0.8611,0.37383 -1.72219,0.74765 -2.60938,1.13281 -0.84562,0.45117 -1.69125,0.90234 -2.5625,1.36719 -0.78375,0.55945 -1.5675,1.1189 -2.375,1.69531 -0.63937,0.72445 -1.27875,1.44891 -1.9375,2.19531 -0.53625,0.78117 -1.0725,1.56235 -1.625,2.36719 -0.45504,0.74379 -0.91008,1.48758 -1.37891,2.25391 -0.34933,0.72058 -0.69867,1.44117 -1.05859,2.18359 -0.20754,0.64324 -0.41508,1.28648 -0.62891,1.94922 -0.12246,0.67676 -0.24492,1.35351 -0.37109,2.05078 -0.0902,0.83016 -0.18047,1.66031 -0.27344,2.51562 -0.0503,1.35352 -0.0503,1.35352 -0.10156,2.73438 0.0129,0.9668 0.0258,1.93359 0.0391,2.92969 0.11086,0.9307 0.22172,1.8614 0.33594,2.82031 0.27586,0.7657 0.55172,1.53141 0.83594,2.32031 0.57621,1.01707 0.57621,1.01707 1.16406,2.05469 0.44317,0.58806 0.88634,1.17613 1.34294,1.78201 0.54683,0.60819 1.09366,1.21637 1.65706,1.84299 0.57942,0.44359 1.15884,0.88718 1.75581,1.34421 0.634,0.39543 1.26799,0.79086 1.92119,1.19827 0.70726,0.42505 1.41453,0.8501 2.14322,1.28803 0.71933,0.38593 1.43866,0.77186 2.17978,1.16949 0.65753,0.28587 1.31507,0.57174 1.99252,0.86627 0.6524,0.24023 1.3048,0.48046 1.97696,0.72797 0.67614,0.22429 1.35228,0.44857 2.04891,0.67966 1.06404,0.33235 1.06404,0.33235 2.14958,0.67141 0.77015,0.24856 1.5403,0.49712 2.33378,0.75321 0.80557,0.25579 1.61114,0.51157 2.44112,0.77511 1.24013,0.37953 1.24013,0.37953 2.50531,0.76673 0.8421,0.25068 1.6842,0.50136 2.55182,0.75964 1.26702,0.36636 1.26702,0.36636 2.55963,0.74011 0.85382,0.24142 1.70765,0.48284 2.58734,0.73157 0.86616,0.24085 1.73232,0.48171 2.62473,0.72986 0.87585,0.24029 1.75169,0.48058 2.65408,0.72815 0.88334,0.23996 1.76668,0.47993 2.67679,0.72717 0.89267,0.24118 1.78533,0.48235 2.70505,0.73084 0.90085,0.24286 1.8017,0.48573 2.72986,0.73596 0.91575,0.24794 1.83151,0.49588 2.77502,0.75134 0.94428,0.2589 1.88856,0.5178 2.86145,0.78455 0.95097,0.26284 1.90193,0.52569 2.88171,0.7965 0.94175,0.26213 1.88351,0.52425 2.85379,0.79432 0.92836,0.26027 1.85672,0.52054 2.81321,0.78869 0.91071,0.25673 1.82142,0.51345 2.75973,0.77796 0.87738,0.2502 1.75476,0.50039 2.65872,0.75818 0.83558,0.24206 1.67115,0.48412 2.53205,0.73352 1.15178,0.34218 1.15178,0.34218 2.32684,0.69128 0.65829,0.20492 1.31658,0.40984 1.99481,0.62097 0.58808,0.1905 1.17615,0.381 1.78205,0.57727 1.04172,0.35482 2.08344,0.70963 3.15673,1.0752 0.92442,0.33386 1.84884,0.66773 2.80127,1.01172 0.83,0.31839 1.65999,0.63679 2.51514,0.96484 0.79132,0.31582 1.58265,0.63164 2.39795,0.95703 0.74137,0.31067 1.48274,0.62133 2.24658,0.94141 1.03375,0.45778 1.03375,0.45778 2.08838,0.9248 0.66564,0.30583 1.33128,0.61166 2.01709,0.92676 0.67724,0.31356 1.35448,0.62713 2.05225,0.9502 0.66725,0.31807 1.3345,0.63615 2.02197,0.96386 0.64791,0.32195 1.29583,0.64389 1.96338,0.97559 0.62697,0.32516 1.25393,0.65033 1.8999,0.98535 0.59603,0.32517 1.19206,0.65033 1.80615,0.98535 0.58089,0.33226 1.16177,0.66451 1.76026,1.00684 0.57379,0.34257 1.14758,0.68513 1.73877,1.03808 0.57991,0.36126 1.15983,0.72252 1.75732,1.09473 0.60957,0.39478 1.21913,0.78955 1.84717,1.19629 0.9245,0.61827 0.9245,0.61827 1.86767,1.24902 0.6086,0.41854 1.2172,0.83709 1.84424,1.26831 0.59925,0.42451 1.19851,0.84901 1.81592,1.28638 0.87954,0.64546 0.87954,0.64546 1.77686,1.30396 0.56477,0.42434 1.12954,0.84868 1.71142,1.28588 0.53964,0.41363 1.07927,0.82726 1.63526,1.25342 0.74322,0.57259 0.74322,0.57259 1.50146,1.15674 0.79793,0.59941 1.59586,1.19883 2.41797,1.81641 0.70769,0.57621 1.41539,1.15242 2.14453,1.74609 0.69223,0.64453 1.38445,1.28906 2.09766,1.95312 0.77214,0.81985 1.54429,1.63969 2.33984,2.48438 0.49355,0.5601 0.9871,1.1202 1.49561,1.69727 0.53641,0.63099 1.07282,1.26199 1.62548,1.9121 0.55285,0.67491 1.1057,1.34981 1.6753,2.04517 0.56219,0.71213 1.12438,1.42425 1.70361,2.15796 0.55704,0.73469 1.11407,1.46937 1.68799,2.22632 0.54769,0.75418 1.09538,1.50836 1.65967,2.2854 0.53512,0.77134 1.07024,1.54268 1.62158,2.3374 0.50515,0.77167 1.0103,1.54333 1.53076,2.33838 0.44972,0.74717 0.89944,1.49435 1.36279,2.26416 0.41524,0.74427 0.83048,1.48855 1.2583,2.25537 0.39244,0.75362 0.78488,1.50724 1.18921,2.28369 0.37198,0.76619 0.74395,1.53238 1.1272,2.32178 0.35844,0.78681 0.71688,1.57362 1.08618,2.38428 0.34281,0.80518 0.68562,1.61036 1.03882,2.43994 0.32613,0.8229 0.65227,1.64581 0.98828,2.49365 0.31324,0.84385 0.62649,1.68771 0.94922,2.55713 0.30551,0.86834 0.61102,1.73669 0.92578,2.63135 0.29262,0.89122 0.58524,1.78245 0.88672,2.70068 0.41464,1.37309 0.41464,1.37309 0.83765,2.77393 0.25982,0.93441 0.51965,1.86882 0.78735,2.83154 0.36364,1.41322 0.36364,1.41322 0.73462,2.85498 0.22293,0.96954 0.44585,1.93907 0.67554,2.93799 0.20254,1.00337 0.40508,2.00675 0.61377,3.04053 0.17773,1.06557 0.35545,2.13114 0.53857,3.229 0.0763,0.57994 0.15255,1.15987 0.23114,1.75739 0.0692,0.60036 0.13845,1.20072 0.20978,1.81927 0.0634,0.61086 0.12678,1.22172 0.19209,1.85109 0.0579,0.6181 0.11589,1.2362 0.17558,1.87303 0.0798,0.92951 0.0798,0.92951 0.1613,1.87779 0.0487,0.61856 0.0974,1.23711 0.14754,1.87441 0.0443,0.61529 0.0886,1.23059 0.13431,1.86453 0.0407,0.60472 0.0813,1.20944 0.12326,1.83249 0.038,0.58369 0.076,1.16739 0.1152,1.76877 0.0521,0.8549 0.0521,0.8549 0.10526,1.72708 0.0587,1.10996 0.11746,2.21993 0.17798,3.36352 0.0679,1.62024 0.0679,1.62024 0.1372,3.2732 0.0295,1.02875 0.059,2.0575 0.0894,3.11743 0.008,0.9469 0.0152,1.89379 0.023,2.86938 -0.002,0.90549 -0.005,1.81098 -0.007,2.7439 -0.008,1.33104 -0.008,1.33104 -0.0161,2.68897 1.6e-4,0.89025 3.2e-4,1.78051 4.9e-4,2.69775 0.0195,0.93022 0.039,1.86044 0.0591,2.81885 0.0295,0.94536 0.059,1.89073 0.0894,2.86474 0.0346,0.94142 0.0693,1.88284 0.10498,2.85279 0.0401,0.95737 0.0802,1.91474 0.12158,2.90112 0.044,1.007 0.088,2.014 0.1333,3.05151 0.0732,1.49431 0.0732,1.49431 0.14795,3.0188 0.0541,0.95294 0.10828,1.90588 0.16406,2.8877 0.0593,0.85948 0.1186,1.71896 0.17969,2.60449 0.0644,0.67901 0.12891,1.35803 0.19531,2.05762 0.0696,0.57653 0.13922,1.15306 0.21094,1.74707 0.15469,0.99258 0.30938,1.98515 0.46875,3.00781 0.17789,0.88687 0.35578,1.77375 0.53906,2.6875 0.19336,0.825 0.38672,1.65 0.58594,2.5 0.19336,0.88687 0.38672,1.77375 0.58594,2.6875 0.21914,0.86625 0.43828,1.7325 0.66406,2.625 0.26297,0.80309 0.52594,1.60617 0.79688,2.43359 0.31453,0.74379 0.62906,1.48758 0.95312,2.25391 0.37641,0.6716 0.75281,1.3432 1.14063,2.03516 0.44859,0.60714 0.89718,1.21429 1.35937,1.83984 0.52336,0.54785 1.04672,1.0957 1.58594,1.66016 0.94746,0.72509 0.94746,0.72509 1.91406,1.46484 0.79664,0.41121 1.59328,0.82242 2.41406,1.24609 0.89461,0.35192 1.78922,0.70383 2.71094,1.06641 0.82758,0.28488 1.65516,0.56977 2.50781,0.86328 1.11117,0.27199 2.22235,0.54399 3.36719,0.82422 0.72193,0.16695 1.44386,0.3339 2.18767,0.50591 0.87804,0.17296 1.75607,0.34592 2.66072,0.52412 1.61074,0.26305 1.61074,0.26305 3.25403,0.53142 0.61311,0.0792 1.22622,0.15836 1.85791,0.23995 0.67309,0.0655 1.34618,0.13108 2.03967,0.1986 0.74815,0.0404 1.4963,0.0807 2.26712,0.12232 0.80553,0.0258 1.61107,0.0517 2.44101,0.0783 1.27778,0.0263 1.27778,0.0263 2.58136,0.0532 0.89342,0.011 1.78684,0.0219 2.70734,0.0332 0.92679,0.008 1.85358,0.0163 2.80846,0.0247 1.43916,0.008 1.43916,0.008 2.9074,0.0159 0.99016,0.003 1.98031,0.005 3.00047,0.008 1.01633,0.003 2.03267,0.005 3.07981,0.008 1.5569,0.01 1.5569,0.01 3.14526,0.0203 1.58667,0.0119 1.58667,0.0119 3.2054,0.024 1.07524,0.008 2.15049,0.0154 3.25831,0.0234 1.09004,0.007 2.18007,0.0146 3.30314,0.0222 1.10265,0.006 2.20531,0.012 3.34138,0.0182 1.11139,0.005 2.22278,0.0109 3.36785,0.0165 1.67521,0.008 1.67521,0.008 3.38428,0.0161 1.11834,0.005 2.23668,0.0104 3.38891,0.0157 1.11512,0.005 2.23024,0.0104 3.37915,0.0157 1.66676,0.008 1.66676,0.008 3.36719,0.0161 1.1055,0.005 2.21099,0.0109 3.34999,0.0165 1.09807,0.006 2.19615,0.012 3.3275,0.0182 1.63487,0.011 1.63487,0.011 3.30276,0.0222 1.61555,0.0116 1.61555,0.0116 3.26373,0.0234 1.06091,0.008 2.12182,0.0158 3.21488,0.024 1.03959,0.007 2.07918,0.0134 3.15027,0.0203 1.51589,0.004 1.51589,0.004 3.0624,0.008 0.98578,0.003 1.97156,0.005 2.98721,0.008 1.44442,0.008 1.44442,0.008 2.91802,0.0155 1.40857,0.0125 1.40857,0.0125 2.84561,0.0252 1.37215,0.0184 1.37215,0.0184 2.77203,0.0372 0.89043,0.0186 1.78086,0.0372 2.69827,0.0563 0.86514,0.0261 1.73028,0.0523 2.62164,0.0792 1.26317,0.0566 1.26317,0.0566 2.55185,0.11442 0.82383,0.056 1.64765,0.11192 2.49644,0.16959 0.79714,0.0679 1.59428,0.13573 2.41558,0.20565 1.15149,0.11669 1.15149,0.11669 2.32625,0.23574 0.72615,0.0813 1.4523,0.16265 2.20046,0.24644 0.66241,0.0719 1.32482,0.14384 2.0073,0.21794 0.62648,0.0802 1.25295,0.1603 1.89841,0.24288 0.60167,0.0955 1.20335,0.19107 1.82325,0.2895 0.60467,0.12945 1.20933,0.25889 1.83231,0.39226 0.66045,0.19805 1.3209,0.39609 2.00137,0.60014 0.65235,0.22529 1.30471,0.45058 1.97683,0.6827 0.5825,0.21456 1.165,0.42912 1.76515,0.65018 0.83861,0.34253 0.83861,0.34253 1.69415,0.69198 0.90111,0.41498 0.90111,0.41498 1.82043,0.83834 0.52461,0.25702 1.04922,0.51404 1.58973,0.77885 0.53254,0.28585 1.06509,0.5717 1.61377,0.86621 0.50773,0.29423 1.01546,0.58846 1.53857,0.8916 0.92684,0.6007 1.85368,1.20141 2.8086,1.82031 0.84691,0.6368 1.69383,1.2736 2.5664,1.92969 0.78633,0.68063 1.57266,1.36125 2.38282,2.0625 0.73992,0.72187 1.47984,1.44375 2.24218,2.1875 0.7193,0.76312 1.4386,1.52625 2.17969,2.3125 1.02481,1.20656 1.02481,1.20656 2.07031,2.4375 0.6368,0.83918 1.2736,1.67836 1.92969,2.54297 0.90054,1.33975 0.90054,1.33975 1.81979,2.7068 0.58008,0.98613 1.16016,1.97227 1.75782,2.98828 0.53367,1.01449 1.06734,2.02899 1.61718,3.07422 0.47438,1.01578 0.94875,2.03157 1.4375,3.07813 0.39188,0.9436 0.78375,1.88718 1.1875,2.85937 0.26813,0.73735 0.53625,1.47469 0.8125,2.23438 0.18563,0.68578 0.37125,1.37157 0.5625,2.07812 0.1895,1.06734 0.1895,1.06734 0.38282,2.15625 0.0799,0.83531 0.15984,1.67062 0.24218,2.53125 0.089,1.71704 0.089,1.71704 0.17969,3.46875 0.0167,0.62528 0.0334,1.25055 0.0505,1.89479 0.01,0.96474 0.01,0.96474 0.0198,1.94896 -0.006,0.6451 -0.0114,1.2902 -0.0173,1.95484 -0.0243,0.96402 -0.0243,0.96402 -0.0491,1.9475 -0.0259,0.63665 -0.0519,1.27328 -0.0786,1.92921 -0.0346,0.61247 -0.0693,1.22492 -0.10498,1.85595 -0.0915,1.09442 -0.18304,2.18884 -0.27734,3.31642 -0.13535,1.00932 -0.2707,2.01867 -0.41016,3.05858 -0.28037,1.44053 -0.28037,1.44053 -0.5664,2.91017 -0.24622,0.89589 -0.49243,1.79178 -0.74611,2.71483 -0.31839,0.82371 -0.63679,1.64742 -0.96484,2.49609 -0.38285,0.76442 -0.7657,1.52883 -1.16016,2.31641 -0.43957,0.71028 -0.87914,1.42056 -1.33203,2.15234 -0.76377,1.00742 -0.76377,1.00742 -1.54297,2.03516 -0.60199,0.66129 -1.20398,1.32259 -1.82421,2.00392 -0.65614,0.61746 -1.31227,1.23491 -1.98829,1.87108 -0.68707,0.55687 -1.37414,1.11375 -2.08203,1.6875 -0.6948,0.47438 -1.38961,0.94876 -2.10547,1.4375 -0.66386,0.35064 -1.32773,0.70125 -2.01171,1.0625 -0.65614,0.26814 -1.31227,0.53625 -1.98829,0.8125 -0.5775,0.20367 -1.155,0.40734 -1.75,0.6172 -1.11375,0.25136 -1.11375,0.25136 -2.25,0.5078 -0.82513,0.13038 -0.82513,0.13038 -1.66694,0.26341 -0.63868,0.0857 -1.27737,0.1713 -1.9354,0.25955 -0.71471,0.0868 -1.42941,0.17358 -2.16577,0.26299 -0.73652,0.0706 -1.47305,0.14127 -2.23189,0.21405 -0.67992,0.0313 -1.35985,0.0627 -2.06038,0.095 -0.68338,0.012 -1.36675,0.0241 -2.07084,0.0365 -0.7179,0.004 -1.43581,0.008 -2.17547,0.0116 -0.7609,-8.7e-4 -1.5218,-0.002 -2.30576,-0.003 -0.83,0.003 -1.66001,0.006 -2.51516,0.009 -0.87725,0.003 -1.7545,0.005 -2.65834,0.008 -1.36811,9e-4 -1.36811,9e-4 -2.76386,0.002 -0.94472,5.1e-4 -1.88944,0.001 -2.86278,0.002 -0.97088,0.002 -1.94176,0.005 -2.94205,0.007 -0.99754,0.003 -1.99507,0.005 -3.02283,0.008 -1.023,0.002 -2.04599,0.005 -3.09999,0.008 -1.04704,0.002 -2.09407,0.004 -3.17283,0.007 -1.60682,0.002 -1.60682,0.002 -3.24609,0.004 -1.0895,9.9e-4 -2.179,0.002 -3.30151,0.003 -1.1041,9.1e-4 -2.2082,0.002 -3.34575,0.003 -1.66836,10e-4 -1.66836,10e-4 -3.37042,0.003 -1.6655,0.002 -1.6655,0.002 -3.36465,0.004 -1.67324,0.002 -1.67324,0.002 -3.38029,0.004 -1.12433,0.001 -2.24865,0.003 -3.40704,0.004 -1.13332,10e-4 -2.26663,0.003 -3.43429,0.004 -1.14413,10e-4 -2.28827,0.003 -3.46707,0.004 -1.15364,10e-4 -2.30729,0.002 -3.49589,0.004 -0.57995,5.8e-4 -1.1599,10e-4 -1.75743,0.002 -0.87329,8.2e-4 -0.87329,8.2e-4 -1.76422,0.002 -0.87676,7.6e-4 -0.87676,7.6e-4 -1.77124,0.002 -0.58706,4.4e-4 -1.17412,8.7e-4 -1.77897,10e-4 -0.5901,3.4e-4 -1.1802,6.7e-4 -1.78818,10e-4 -0.88872,4e-4 -0.88872,4e-4 -1.79539,8.2e-4 -0.89164,3.5e-4 -0.89164,3.5e-4 -1.80128,7.1e-4 -0.59617,2.2e-4 -1.19234,4.4e-4 -1.80657,6.6e-4 -0.89639,3.3e-4 -0.89639,3.3e-4 -1.81088,6.6e-4 -0.59893,2.2e-4 -1.19786,4.4e-4 -1.81493,6.6e-4 -0.60015,2.2e-4 -1.20031,4.4e-4 -1.81864,6.7e-4 -0.90172,3.3e-4 -0.90172,3.3e-4 -1.82166,6.7e-4 -0.60188,2.3e-4 -1.20377,4.5e-4 -1.8239,6.8e-4 -0.60259,2.4e-4 -1.20518,4.8e-4 -1.82604,7.3e-4 -0.9048,4.4e-4 -0.9048,4.4e-4 -1.82789,8.8e-4 -0.60371,3.3e-4 -1.20741,6.7e-4 -1.82942,10e-4 -0.60414,3.8e-4 -1.20828,7.6e-4 -1.83072,10e-4 -0.60438,4.6e-4 -1.20875,9.2e-4 -1.83143,0.001 -0.60445,5.6e-4 -1.20889,10e-4 -1.83165,0.002 -0.90648,10e-4 -0.90648,10e-4 -1.83127,0.002 -0.60393,9.9e-4 -1.20785,0.002 -1.83008,0.003 -0.60357,10e-4 -1.20713,0.002 -1.82899,0.003 -0.90479,0.002 -0.90479,0.002 -1.82786,0.004 -0.60272,10e-4 -1.20544,0.003 -1.82642,0.004 -0.90327,0.002 -0.90327,0.002 -1.82479,0.004 -0.90232,0.002 -0.90232,0.002 -1.82288,0.004 -0.60082,10e-4 -1.20165,0.003 -1.82068,0.004 -0.60007,10e-4 -1.20014,0.003 -1.8184,0.004 -0.59933,10e-4 -1.19866,0.003 -1.81615,0.004 -0.59835,10e-4 -1.1967,0.003 -1.81318,0.004 -0.59717,0.001 -1.19435,0.003 -1.80961,0.004 -0.59589,10e-4 -1.19178,0.003 -1.80573,0.004 -0.5945,10e-4 -1.18901,0.003 -1.80153,0.004 -0.88935,0.002 -0.88935,0.002 -1.79668,0.004 -0.59115,10e-4 -1.18231,0.002 -1.79138,0.003 -0.58911,9.9e-4 -1.17821,0.002 -1.78517,0.003 -0.58662,7.4e-4 -1.17323,10e-4 -1.77763,0.002 -0.5844,5.7e-4 -1.1688,0.001 -1.77091,0.002 -0.58231,4.7e-4 -1.16462,9.4e-4 -1.76457,10e-4 -0.58024,3.9e-4 -1.16048,7.8e-4 -1.75831,10e-4 -1.15447,6.7e-4 -2.30894,10e-4 -3.49839,0.002 -1.71817,6.7e-4 -1.71817,6.7e-4 -3.47105,10e-4 -1.70281,2.4e-4 -1.70281,2.4e-4 -3.44001,4.9e-4 -1.12619,2.1e-4 -2.25238,4.1e-4 -3.4127,6.3e-4 -1.11715,3.7e-4 -2.23431,7.4e-4 -3.38532,10e-4 -1.11066,10e-4 -2.22132,0.002 -3.36564,0.003 -1.10924,0.003 -2.21849,0.006 -3.36134,0.009 -1.1002,0.004 -2.2004,0.007 -3.33393,0.0106 -1.08592,0.003 -2.17184,0.007 -3.29066,0.0103 -1.06954,0.002 -2.13908,0.005 -3.24103,0.007 -1.05025,2e-5 -2.1005,3e-5 -3.18258,5e-5 -1.02818,-9.7e-4 -2.05636,-0.002 -3.1157,-0.003 -1.00407,-0.002 -2.00815,-0.003 -3.04265,-0.005 -0.97484,-3.9e-4 -1.94969,-7.8e-4 -2.95409,-10e-4 -0.93824,0.005 -1.87649,0.01 -2.84317,0.0146 -0.9064,0.004 -1.8128,0.009 -2.74667,0.0133 -1.31565,-4.6e-4 -1.31565,-4.6e-4 -2.65788,-9.2e-4 -0.84707,-0.005 -1.69414,-0.0105 -2.56688,-0.016 -1.22534,-0.0149 -1.22534,-0.0149 -2.47543,-0.0301 -0.78752,-0.0206 -1.57503,-0.0411 -2.38641,-0.0623 -1.13663,-0.0508 -1.13663,-0.0508 -2.29623,-0.10261 -0.73138,-0.0569 -1.46275,-0.11384 -2.21629,-0.17248 -0.7114,-0.0967 -1.42281,-0.19334 -2.15577,-0.29294 -0.68192,-0.11828 -1.36385,-0.23657 -2.06644,-0.35843 -0.64672,-0.12893 -1.29343,-0.25785 -1.95974,-0.39068 -0.6066,-0.13479 -1.21319,-0.26958 -1.83816,-0.40845 -1.07234,-0.2619 -2.14467,-0.5238 -3.2495,-0.79363 -0.90103,-0.24524 -1.80206,-0.49468 -2.73039,-0.75168 -0.69939,-0.19615 -1.39877,-0.3923 -2.11935,-0.59439 -0.57679,-0.18283 -1.15357,-0.36567 -1.74784,-0.55404 -0.99258,-0.40476 -1.98515,-0.80953 -3.00781,-1.22656 -0.56187,-0.24275 -1.12374,-0.48549 -1.70264,-0.7356 -0.58797,-0.27674 -1.17594,-0.55349 -1.78173,-0.83862 -0.58975,-0.31115 -1.1795,-0.62229 -1.78711,-0.94287 -0.61166,-0.36562 -1.22332,-0.73122 -1.85352,-1.10792 -0.65291,-0.45198 -1.30582,-0.90395 -1.97852,-1.36963 -0.67224,-0.50322 -1.34449,-1.00643 -2.0371,-1.5249 -0.68466,-0.53899 -1.36931,-1.07798 -2.07471,-1.6333 -0.67144,-0.54768 -1.34288,-1.09537 -2.03467,-1.65967 -0.60828,-0.50386 -1.21655,-1.00771 -1.84326,-1.52686 -0.61118,-0.52094 -1.22236,-1.04188 -1.85205,-1.57861 -0.6575,-0.57903 -1.31501,-1.15806 -1.99243,-1.75464 -0.7218,-0.64429 -1.44359,-1.28858 -2.18726,-1.95239 -0.81396,-0.7197 -1.62792,-1.4394 -2.46655,-2.18091 -0.44664,-0.39954 -0.89327,-0.79908 -1.35344,-1.21072 -0.47319,-0.42764 -0.94639,-0.85527 -1.43392,-1.29587 -0.49571,-0.45277 -0.99142,-0.90555 -1.50215,-1.37204 -0.5307,-0.49171 -1.06141,-0.98341 -1.6082,-1.49002 -0.57117,-0.53676 -1.14235,-1.07353 -1.73083,-1.62656 -0.62862,-0.60188 -1.25724,-1.20375 -1.90491,-1.82388 -1.07369,-1.05255 -1.07369,-1.05255 -2.16907,-2.12636 -1.15526,-1.14558 -1.15526,-1.14558 -2.33386,-2.3143 -0.80472,-0.80291 -1.60943,-1.60582 -2.43854,-2.43306 -0.6194,-0.62025 -0.6194,-0.62025 -1.25132,-1.25302 -0.4172,-0.41837 -0.8344,-0.83674 -1.26424,-1.26778 -0.41815,-0.41949 -0.8363,-0.83898 -1.26711,-1.27119 -0.42069,-0.4224 -0.84138,-0.8448 -1.27482,-1.28 -0.4239,-0.42605 -0.84779,-0.85209 -1.28453,-1.29104 -0.42658,-0.42911 -0.85317,-0.85823 -1.29268,-1.30035 -0.64367,-0.64807 -0.64367,-0.64807 -1.30034,-1.30922 -0.43126,-0.43445 -0.86252,-0.8689 -1.30684,-1.31651 -0.4328,-0.43615 -0.86561,-0.87229 -1.31152,-1.32166 -0.43482,-0.43824 -0.86964,-0.87648 -1.31763,-1.328 -0.43804,-0.44146 -0.87608,-0.88293 -1.32739,-1.33777 -0.43844,-0.44178 -0.87689,-0.88357 -1.32862,-1.33874 -0.43672,-0.43997 -0.87345,-0.87993 -1.32341,-1.33323 -0.43412,-0.437 -0.86823,-0.874 -1.3155,-1.32424 -0.43052,-0.43264 -0.86104,-0.86528 -1.3046,-1.31103 -0.42507,-0.4269 -0.85015,-0.8538 -1.2881,-1.29363 -0.41841,-0.42003 -0.83682,-0.84006 -1.2679,-1.27282 -0.40888,-0.41104 -0.81775,-0.82208 -1.23901,-1.24557 -0.7793,-0.7876 -1.55861,-1.57521 -2.36153,-2.38667 -1.11232,-1.11728 -1.11232,-1.11728 -2.24711,-2.25713 -0.70839,-0.7034 -1.41678,-1.40679 -2.14664,-2.1315 -0.67244,-0.64521 -1.34488,-1.29041 -2.03769,-1.95517 -0.63562,-0.56069 -1.27124,-1.12138 -1.92612,-1.69907 -0.59761,-0.50625 -1.19522,-1.01249 -1.81094,-1.53408 -0.56628,-0.47532 -1.13255,-0.95064 -1.71599,-1.44036 -0.76574,-0.65661 -0.76574,-0.65661 -1.54695,-1.32649 -1.18046,-1.14952 -1.18046,-1.14952 -2.38477,-2.32227 -0.39679,-0.40581 -0.79357,-0.81162 -1.20239,-1.22973 -0.69935,-0.71676 -0.69935,-0.71676 -1.41284,-1.448 -0.94009,-0.94202 -0.94009,-0.94202 -1.89917,-1.90308 -0.71583,-0.71454 -1.43166,-1.42908 -2.16919,-2.16528 -0.76429,-0.76429 -1.52859,-1.52859 -2.31604,-2.31604 -0.81159,-0.81159 -1.62317,-1.62317 -2.45935,-2.45935 -0.41944,-0.41944 -0.83889,-0.83889 -1.27104,-1.27104 -0.42727,-0.42727 -0.85454,-0.85454 -1.29476,-1.29476 -0.43419,-0.43419 -0.86838,-0.86838 -1.31572,-1.31572 -0.44,-0.44 -0.87999,-0.87999 -1.33332,-1.33332 -0.44481,-0.44481 -0.88962,-0.88962 -1.34791,-1.34791 -0.44835,-0.44835 -0.8967,-0.8967 -1.35864,-1.35864 -0.45067,-0.45067 -0.90133,-0.90133 -1.36566,-1.36566 -0.45183,-0.45183 -0.90367,-0.90367 -1.3692,-1.3692 -0.45184,-0.45184 -0.90367,-0.90367 -1.3692,-1.3692 -0.45067,-0.45067 -0.90134,-0.90134 -1.36566,-1.36566 -0.44835,-0.44835 -0.8967,-0.8967 -1.35864,-1.35864 -0.44481,-0.44481 -0.88962,-0.88962 -1.34791,-1.34791 -0.43999,-0.43999 -0.87999,-0.87999 -1.33332,-1.33332 -0.43419,-0.43419 -0.86838,-0.86838 -1.31572,-1.31572 -0.42727,-0.42727 -0.85454,-0.85454 -1.29476,-1.29476 -0.41944,-0.41944 -0.83889,-0.83889 -1.27104,-1.27104 -0.81159,-0.81159 -1.62317,-1.62317 -2.45935,-2.45935 -0.76429,-0.76429 -1.52859,-1.52859 -2.31604,-2.31604 -0.71374,-0.71309 -1.42748,-1.42619 -2.16284,-2.16089 -0.62882,-0.62946 -1.25764,-1.25893 -1.90552,-1.90747 -0.48509,-0.49089 -0.97018,-0.98178 -1.46997,-1.48755 -0.41145,-0.41596 -0.82291,-0.83193 -1.24683,-1.2605 -1.13018,-1.11471 -1.13018,-1.11471 -2.2832,-2.25195 -0.41625,-0.38531 -0.83249,-0.77062 -1.26135,-1.1676 -0.43712,-0.39587 -0.87423,-0.79173 -1.32459,-1.19959 -0.44779,-0.40259 -0.89557,-0.80518 -1.35693,-1.21997 -0.4726,-0.42499 -0.94521,-0.84997 -1.43213,-1.28784 -0.51256,-0.46559 -1.02513,-0.93119 -1.55322,-1.41089 -0.80897,-0.74214 -0.80897,-0.74214 -1.63428,-1.49927 -0.55816,-0.51707 -1.11633,-1.03415 -1.69141,-1.56689 -0.57621,-0.54382 -1.15242,-1.08765 -1.74609,-1.64795 -0.59168,-0.57605 -1.18336,-1.1521 -1.79297,-1.74561 -0.90685,-0.89742 -0.90685,-0.89742 -1.83203,-1.81298 -0.92293,-0.92112 -0.92293,-0.92112 -1.8645,-1.86084 -0.62222,-0.62472 -1.24443,-1.24943 -1.8855,-1.89307 -0.62415,-0.62729 -1.2483,-1.25458 -1.89136,-1.90088 -0.62753,-0.63212 -1.25506,-1.26425 -1.90161,-1.91553 -0.62954,-0.63567 -1.25909,-1.27133 -1.90771,-1.92627 -0.63503,-0.64179 -1.27005,-1.28358 -1.92432,-1.94482 -0.6492,-0.65597 -1.29841,-1.31194 -1.96729,-1.98779 -0.6463,-0.65243 -1.2926,-1.30486 -1.95849,-1.97705 -0.9477,-0.95363 -0.9477,-0.95363 -1.91455,-1.92652 -0.91435,-0.92003 -0.91435,-0.92003 -1.84717,-1.85864 -0.57605,-0.58435 -1.1521,-1.1687 -1.74561,-1.77075 -0.81235,-0.81731 -0.81235,-0.81731 -1.64111,-1.65113 -0.50322,-0.5008 -1.00643,-1.0016 -1.5249,-1.51757 -0.46229,-0.43248 -0.92458,-0.86496 -1.40088,-1.31055 -1.18529,-0.87398 -1.18529,-0.87398 -2.39453,-1.76563 -0.52981,-0.40734 -1.05961,-0.81468 -1.60547,-1.23437 0,-0.66 0,-1.32 0,-2 -0.99,-0.33 -1.98,-0.66 -3,-1 -0.72018,-0.67821 -1.44037,-1.35642 -2.18237,-2.05518 -0.64901,-0.67606 -0.64901,-0.67606 -1.31113,-1.36578 -0.49714,-0.52108 -0.99429,-1.04217 -1.5065,-1.57904 -0.58665,-0.5915 -1.17331,-1.183 -1.77774,-1.79242 -0.64932,-0.64971 -1.29863,-1.29941 -1.96762,-1.96881 -0.69455,-0.69778 -1.3891,-1.39555 -2.10469,-2.11447 -0.73656,-0.73969 -1.47311,-1.47938 -2.23198,-2.24149 -0.77301,-0.77538 -1.54602,-1.55076 -2.34245,-2.34964 -0.79901,-0.80114 -1.59801,-1.60228 -2.42122,-2.4277 -0.40653,-0.40752 -0.81306,-0.81503 -1.23191,-1.23489 -0.61429,-0.61584 -0.61429,-0.61584 -1.24099,-1.24412 -0.4114,-0.4125 -0.82279,-0.825 -1.24665,-1.25 -0.41159,-0.41298 -0.82318,-0.82596 -1.24725,-1.25146 -0.61449,-0.61754 -0.61449,-0.61754 -1.24139,-1.24756 -0.40801,-0.41024 -0.81602,-0.82049 -1.23639,-1.24316 -0.80978,-0.81388 -1.61955,-1.62777 -2.45386,-2.46631 -0.8,-0.80181 -1.6,-1.60362 -2.42424,-2.42972 -0.77588,-0.77729 -1.55176,-1.55459 -2.35115,-2.35544 -0.73048,-0.73564 -1.46096,-1.47128 -2.21358,-2.22922 -0.704,-0.70407 -1.40801,-1.40815 -2.13335,-2.13357 -0.6847,-0.67674 -1.3694,-1.35348 -2.07485,-2.05072 -0.67937,-0.64987 -1.35874,-1.29974 -2.05869,-1.9693 -0.70313,-0.62747 -1.40627,-1.25494 -2.13071,-1.90143 -0.68865,-0.5973 -1.3773,-1.1946 -2.08682,-1.81 -0.65686,-0.56626 -1.31373,-1.13253 -1.99049,-1.71595 -0.88703,-0.77845 -0.88703,-0.77845 -1.79198,-1.57262 -0.46297,-0.44077 -0.92594,-0.88155 -1.40294,-1.33568 -0.40473,-0.40557 -0.80946,-0.81115 -1.22645,-1.22902 -0.7823,-0.80365 -1.5646,-1.6073 -2.37061,-2.4353 -0.45437,-0.45793 -0.90875,-0.91586 -1.37689,-1.38766 -0.4839,-0.48559 -0.96781,-0.97117 -1.46637,-1.47147 -0.49757,-0.5008 -0.99514,-1.00159 -1.50778,-1.51756 -0.52096,-0.52409 -1.04191,-1.04818 -1.57865,-1.58815 -0.55342,-0.5558 -1.10684,-1.11159 -1.67703,-1.68422 -0.57193,-0.57407 -1.14386,-1.14814 -1.73312,-1.73961 -0.58121,-0.58322 -1.16242,-1.16644 -1.76123,-1.76734 -0.5854,-0.58789 -1.1708,-1.17578 -1.77393,-1.78149 -0.58185,-0.58612 -1.1637,-1.17224 -1.76318,-1.77612 -0.57702,-0.58113 -1.15404,-1.16225 -1.74854,-1.76099 -0.57259,-0.5744 -1.14519,-1.14881 -1.73514,-1.74062 -0.55533,-0.55674 -1.11067,-1.11349 -1.68283,-1.68711 -0.5169,-0.52207 -1.03381,-1.04413 -1.56637,-1.58202 -0.50388,-0.50395 -1.00775,-1.0079 -1.52689,-1.52711 -0.74694,-0.73596 -0.74694,-0.73596 -1.50897,-1.48679 -0.52572,-0.49557 -1.05143,-0.99115 -1.59308,-1.50174 -0.92803,-0.80584 -0.92803,-0.80584 -1.87482,-1.62796 -0.93619,-0.7924 -0.93619,-0.7924 -1.89129,-1.6008 -0.57131,-0.47357 -1.14262,-0.94715 -1.73123,-1.43507 -0.49588,-0.44094 -0.99176,-0.88188 -1.50266,-1.33618 -0.63937,-0.80437 -1.27875,-1.60874 -1.9375,-2.4375 -0.68062,-0.84562 -1.36125,-1.69125 -2.0625,-2.5625 -0.53883,-0.48854 -1.07766,-0.9771 -1.63281,-1.48047 -0.6368,-0.54269 -1.2736,-1.08539 -1.92969,-1.64453 -0.68965,-0.58523 -1.3793,-1.17047 -2.08984,-1.77344 -0.77473,-0.69351 -1.54946,-1.38702 -2.34766,-2.10156 -0.4436,-0.44247 -0.8872,-0.88493 -1.34424,-1.34082 -0.46519,-0.47792 -0.93038,-0.95584 -1.40967,-1.44824 -0.47558,-0.4884 -0.95116,-0.97679 -1.44116,-1.47998 -0.70781,-0.73308 -0.70781,-0.73308 -1.42993,-1.48096 -0.44287,-0.47196 -0.88575,-0.94392 -1.34204,-1.43018 -0.43627,-0.45101 -0.87254,-0.90202 -1.32202,-1.36669 -0.43587,-0.42564 -0.87173,-0.85127 -1.3208,-1.28979 -0.45875,-0.3839 -0.91749,-0.76781 -1.39014,-1.16333 -0.52964,-0.32009 -1.05929,-0.64018 -1.60498,-0.96997 -0.53254,-0.26901 -1.06509,-0.53802 -1.61377,-0.81519 -0.91781,-0.40089 -1.83563,-0.80179 -2.78125,-1.21484 -0.92813,-0.34031 -0.92813,-0.34031 -1.875,-0.6875 -0.70125,-0.10312 -1.4025,-0.20625 -2.125,-0.3125 -0.53432,-0.0383 -1.06863,-0.0767 -1.61914,-0.11621 -0.631,-0.0184 -1.26199,-0.0367 -1.91211,-0.0557 -1.06904,0.004 -1.06904,0.004 -2.159666,0.009 -0.762,0.0537 -1.52399,0.10747 -2.30908,0.16284 -1.15653,0.22466 -1.15653,0.22466 -2.33643,0.45386 -0.78874,0.19956 -1.57749,0.39912 -2.39013,0.60473 -0.80438,0.22108 -1.60875,0.44215 -2.4375,0.66993 -0.81211,0.23396 -1.62422,0.46793 -2.46094,0.70898 -0.81984,0.2301 -1.63969,0.4602 -2.48437,0.69727 -0.8018,0.22236 -1.6036,0.44472 -2.42969,0.67382 -0.7732,0.21157 -1.54639,0.42314 -2.34302,0.64112 -0.69891,0.18159 -1.39783,0.36319 -2.11792,0.55029 -1.54107,0.31904 -1.54107,0.31904 -3.11328,0.64453 -1.42893,0.17596 -1.42893,0.17596 -2.88672,0.35547 -0.57718,0.0399 -1.15436,0.0798 -1.74902,0.12085 -0.93055,0.0407 -0.93055,0.0407 -1.87989,0.0823 -0.9535,0.0192 -0.9535,0.0192 -1.92627,0.0388 -0.66241,0.003 -1.32483,0.005 -2.00732,0.008 -0.70109,-0.002 -1.40218,-0.004 -2.12451,-0.006 -0.71044,-0.0123 -1.42087,-0.0246 -2.15283,-0.0374 -0.70367,-0.0263 -1.40734,-0.0525 -2.13233,-0.0796 -1.00377,-0.0631 -1.00377,-0.0631 -2.02783,-0.12744 -1.7035,-0.21076 -1.7035,-0.21076 -3.44141,-0.42578 -1.05058,-0.21012 -2.10117,-0.42024 -3.18359,-0.63672 -1.04285,-0.27973 -2.0857,-0.55945 -3.16016,-0.84766 -1.06089,-0.35964 -2.12179,-0.71929 -3.21484,-1.08984 -0.5696,-0.21511 -1.13921,-0.43022 -1.72607,-0.65186 -0.58411,-0.23734 -1.16822,-0.47469 -1.77002,-0.71923 -0.88233,-0.38817 -0.88233,-0.38817 -1.78247,-0.78418 -0.88305,-0.41814 -0.88305,-0.41814 -1.78394,-0.84473 -0.87241,-0.44328 -0.87241,-0.44328 -1.76245,-0.89551 -0.86396,-0.47518 -0.86396,-0.47518 -1.74536,-0.95996 -0.57009,-0.33951 -1.14018,-0.67901 -1.72754,-1.02881 -0.56171,-0.36819 -1.12342,-0.73637 -1.70215,-1.11572 -0.82709,-0.61222 -0.82709,-0.61222 -1.6709,-1.23682 -0.80872,-0.65041 -0.80872,-0.65041 -1.63379,-1.31396 -0.78649,-0.67338 -0.78649,-0.67338 -1.58886,-1.36035 -0.50951,-0.46245 -1.01901,-0.92491 -1.54395,-1.40137 -0.74492,-0.71108 -0.74492,-0.71108 -1.50488,-1.43652 -0.71302,-0.71398 -0.71302,-0.71398 -1.44043,-1.44239 -0.45021,-0.47324 -0.90041,-0.94649 -1.36426,-1.43408 -0.6202,-0.68038 -0.6202,-0.68038 -1.25293,-1.37451 -0.67805,-0.79277 -1.35609,-1.58555 -2.05469,-2.40234 -0.87011,-1.16209 -0.87011,-1.16209 -1.75781,-2.34766 -0.79084,-1.21623 -0.79084,-1.21623 -1.59766,-2.45703 -0.52464,-0.92168 -1.04929,-1.84336 -1.58984,-2.79297 -0.30277,-0.56767 -0.6055399,-1.13534 -0.9174799,-1.72021 -0.47204,-0.91774 -0.47204,-0.91774 -0.95361,-1.85401 -0.31413,-0.63776 -0.62826,-1.27553 -0.95191,-1.93262 -0.30591,-0.63712 -0.61182,-1.27423 -0.927,-1.93066 -0.28206,-0.58427 -0.56413,-1.16854 -0.85474,-1.77051 -0.26965,-0.59007 -0.53931,-1.18013 -0.81713,-1.78808 -0.26032,-0.62625 -0.52063,-1.25249 -0.78882,-1.89771 -0.26047,-0.69505 -0.52095,-1.39009 -0.78931,-2.1062 -0.28174,-0.82589 -0.56348,-1.65177 -0.85376,-2.50269 -0.27127,-0.89887 -0.54253,-1.79775 -0.82202,-2.72387 -0.24412,-0.93868 -0.48823,-1.87736 -0.73975,-2.84448 -0.19286996,-0.96601 -0.38574996,-1.93257 -0.58446996,-2.92841 -0.0988,-0.96849 -0.19755,-1.93698 -0.29932,-2.93481 -0.0443,-0.97929 -0.0886,-1.95857 -0.13427,-2.96753 -0.0117,-0.98622 -0.0234,-1.97243 -0.0354,-2.98853 0.0104,-1.00539 0.0208,-2.01078 0.0315,-3.04663 0.01,-1.0576 0.0195,-2.11519 0.0295,-3.20482 0.0357,-1.56538 0.0357,-1.56538 0.072,-3.16237 0.0454,-0.99483 0.0909,-1.98966 0.1377,-3.01464 0.0654,-0.88463 0.13084,-1.76923 0.19824,-2.68066 0.12907,-1.00208 0.12907,-1.00208 0.26074,-2.02441 0.10732,-0.5514 0.21463,-1.1028 0.32519996,-1.6709 0.28101,-0.94617 0.56203,-1.89235 0.85156,-2.86719 0.36867,-0.87656 0.73734,-1.75313 1.11719,-2.65625 0.71543,-1.37672 0.71543,-1.37672 1.44531,-2.78125 0.29552,-0.58008 0.59104,-1.16016 0.89551,-1.75781 0.32581,-0.62649 0.65162,-1.25297 0.9873,-1.89844 0.34902,-0.64107 0.69803,-1.28213 1.05762,-1.94263 0.37028,-0.64799 0.74057,-1.29599 1.12207,-1.96362 0.38833,-0.63704 0.77666,-1.27408 1.17676,-1.93042 0.4031499,-0.62495 0.8063099,-1.24991 1.2216799,-1.8938 0.41604,-0.6115 0.83209,-1.223 1.26074,-1.85303 0.42185,-0.58088 0.84369,-1.16176 1.27832,-1.76025 0.62503,-0.78818 0.62503,-0.78818 1.2627,-1.59229 0.4212,-0.49161 0.8424,-0.98323 1.27636,-1.48974 0.43168,-0.47019 0.86335,-0.94037 1.30811,-1.42481 0.44231,-0.45149 0.88462,-0.90298 1.34033,-1.36816 0.45391,-0.43989 0.90782,-0.87979 1.37549,-1.33301 0.46906,-0.42764 0.93811,-0.85529 1.42139,-1.2959 0.48533,-0.41524 0.97066,-0.83047 1.4707,-1.2583 0.50982,-0.40847 1.01965,-0.81694 1.54492,-1.23779 0.5485,-0.40976 1.09699,-0.81952 1.66211,-1.2417 0.57041,-0.40364 1.14082,-0.80727 1.72852,-1.22314 0.58088,-0.39317 1.16176,-0.78633 1.76025,-1.19141 0.58958,-0.38156 1.17917,-0.76313 1.78662,-1.15625 0.59603,-0.36738 1.19206,-0.73477 1.80615,-1.11328 0.88873,-0.52981 0.88873,-0.52981 1.79541,-1.07031 0.8764,-0.5083 0.8764,-0.5083 1.77051,-1.02686 0.55784,-0.32243 1.11568,-0.64485 1.69043,-0.97705 0.97711,-0.5891 1.95422,-1.1782 2.96094,-1.78516 0.94101,-0.52464 1.88203,-1.04929 2.85156,-1.58984 1.45986,-0.69223 1.45986,-0.69223 2.94922,-1.39844 1.06863,-0.40476 2.13726,-0.80953 3.23828,-1.22656 0.62213,-0.18853 1.24427,-0.37705 1.88525,-0.57129 0.66307,-0.17499 1.32613,-0.34998 2.00928,-0.53027 1.03206,-0.23626 1.03206,-0.23626 2.08496,-0.4773 0.70802,-0.13897 1.41604,-0.27795 2.14551,-0.42114 0.71704,-0.119 1.43408,-0.23799 2.17285,-0.3606 1.092,-0.14441 1.092,-0.14441 2.20606,-0.29174 0.73879,-0.072 1.47758,-0.14406 2.23877,-0.21827 0.74491,-0.0427 1.48983,-0.0854 2.25732,-0.12939 0.74621,-0.005 1.49241,-0.0106 2.26123,-0.0161 0.74782,0.0247 1.49564,0.0493 2.26611,0.0747 0.74839,0.0503 1.49677,0.10055 2.26783,0.15235 0.74822,0.0748 1.49644,0.14953 2.26733,0.22656 0.74886,0.0967 1.49773,0.19336 2.26929,0.29297 1.1158,0.17789 1.1158,0.17789 2.25415,0.35937 0.73573,0.14035 1.47146,0.2807 2.22949,0.4253 0.72091,0.16 1.44182,0.32001 2.18457,0.48486 1.04269,0.26514 1.04269,0.26514 2.10645,0.53564 1.01852,0.29367 1.01852,0.29367 2.05761,0.59327 0.66878,0.2164 1.33757,0.4328 2.02661,0.65576 0.98843,0.35409 0.98843,0.35409 1.99683,0.71533 0.65057,0.25411 1.30115,0.50821 1.97144,0.77002 0.64493,0.2757 1.28986,0.5514 1.95434,0.83545 0.64018,0.29826 1.28036,0.59651 1.93994,0.90381 0.642436,0.32694 1.284876,0.65387 1.946776,0.99072 0.65662,0.3669 1.31323,0.7338 1.98975,1.11182 0.65693,0.39235 1.31387,0.78471 1.99072,1.18896 0.6484,0.40888 1.2968,0.81775 1.96484,1.23901 0.6368,0.42 1.2736,0.83999 1.92969,1.27271 0.62004,0.42193 1.24008,0.84385 1.87891,1.27856 0.6007,0.42628 1.2014,0.85256 1.82031,1.29175 0.57927,0.42958 1.15854,0.85916 1.75537,1.30176 0.55124,0.43409 1.10247,0.86818 1.67041,1.31543 0.77078,0.66661 0.77078,0.66661 1.55713,1.34668 0.48259,0.43989 0.96518,0.87978 1.4624,1.33301 0.45585,0.42176 0.91169,0.84353 1.38135,1.27807 0.42458,0.40582 0.84917,0.81163 1.28662,1.22974 0.74637,0.75668 1.49273,1.51336 2.26172,2.29297 0.67676,0.50144 1.35351,1.00289 2.05078,1.51953 0.66387,-0.003 1.32773,-0.005 2.01172,-0.008 0.9842,-0.49114 0.9842,-0.49114 1.98828,-0.99219 0.6832,-0.60973 1.36641,-1.21945 2.07031,-1.84766 1.01707,-1.09634 1.01707,-1.09634 2.05469,-2.21484 0.6832,-0.73348 1.36641,-1.46695 2.07031,-2.22266 0.59555,-0.56589 1.1911,-1.13179 1.80469,-1.71484 0.66,0 1.32,0 2,0 0.40412,-0.86045 0.40412,-0.86045 0.81641,-1.73828 0.39058,-0.74637 0.78117,-1.49274 1.18359,-2.26172 0.7309,-0.67418 1.4618,-1.34836 2.21484,-2.04297 0.89848,-0.70769 1.79696,-1.41539 2.72266,-2.14453 0.73416,-0.5831 0.73416,-0.5831 1.48315,-1.17798 0.50314,-0.40017 1.00628,-0.80035 1.52466,-1.21265 0.51079,-0.40283 1.02158,-0.80566 1.54785,-1.2207 0.74589,-0.59458 0.74589,-0.59458 1.50684,-1.20117 0.8843,-0.73734 1.76859,-1.47469 2.67969,-2.23438 0.86883,-0.72703 1.73765,-1.45406 2.63281,-2.20312 0.45182,-0.37044 0.90363,-0.74089 1.36914,-1.12256 0.46342,-0.37463 0.92684,-0.74927 1.4043,-1.13525 0.47405,-0.37802 0.9481,-0.75604 1.43652,-1.14551 0.48759,-0.38253 0.97518,-0.76506 1.47754,-1.15918 0.50306,-0.38769 1.00611,-0.77537 1.52441,-1.1748 0.52046,-0.39349 1.04092,-0.78698 1.57715,-1.19239 0.81078,-0.60062 0.81078,-0.60062 1.63794,-1.21338 0.84051,-0.6098 0.84051,-0.6098 1.698,-1.23193 0.57774,-0.41041 1.15548,-0.82081 1.75073,-1.24365 0.60433,-0.41975 1.20866,-0.8395 1.8313,-1.27197 0.63503,-0.4312 1.27005,-0.86239 1.92432,-1.30665 1.01779,-0.67579 1.01779,-0.67579 2.05615,-1.36523 0.74427,-0.48404 1.48854,-0.96809 2.25537,-1.4668 0.78585,-0.5008 1.57169,-1.0016 2.38135,-1.51757 0.81259,-0.50677 1.62518,-1.01353 2.4624,-1.53565 0.83354,-0.50902 1.66708,-1.01804 2.52588,-1.54248 0.84385,-0.50515 1.68771,-1.0103 2.55713,-1.53076 0.85384,-0.49774 1.70768,-0.99548 2.5874,-1.5083 1.29285,-0.73138 1.29285,-0.73138 2.61182,-1.47754 1.29623,-0.70335 1.29623,-0.70335 2.61865,-1.4209 0.86029,-0.43796 1.72058,-0.87592 2.60693,-1.32715 1.28318,-0.6231 1.28318,-0.6231 2.59229,-1.25879 0.84715,-0.39663 1.69431,-0.79325 2.56714,-1.2019 0.84022,-0.37939 1.68045,-0.75878 2.54614,-1.14966 0.83958,-0.36714 1.67917,-0.73428 2.54419,-1.11255 0.82073,-0.34829 1.64146,-0.69658 2.48706,-1.05542 0.79406,-0.32661 1.58813,-0.65323 2.40625,-0.98974 0.7425,-0.29858 1.485,-0.59716 2.25,-0.90479 0.64711,-0.25862 1.29422,-0.517241 1.96094,-0.783696 0.6007,-0.232515 1.2014,-0.46503 1.82031,-0.70459 0.58693,-0.215677 1.17385,-0.431353 1.77856,-0.653565 0.57839,-0.200691 1.15678,-0.401382 1.75269,-0.608154 0.57774,-0.188445 1.15548,-0.37689 1.75073,-0.571045 0.60175,-0.182805 1.2035,-0.36561 1.82349,-0.553955 0.95592,-0.270703 0.95592,-0.270703 1.93115,-0.546875 0.7201,-0.190781 1.44021,-0.381563 2.18213,-0.578125 0.88124,-0.221719 1.76247,-0.443438 2.67041,-0.671875 0.96084,-0.232031 1.92167,-0.464062 2.91162,-0.703125 0.99669,-0.229775 1.99338,-0.459551 3.02026,-0.696289 0.9975,-0.223975 1.99499,-0.447949 3.02271,-0.678711 0.92982,-0.211084 1.85963,-0.422168 2.81763,-0.639648 0.9187,-0.19626 1.83739,-0.39252 2.78393,-0.594727 0.939,-0.180227 1.87801,-0.360454 2.84546,-0.546143 0.96623,-0.154929 1.93247,-0.309858 2.92798,-0.469482 1.51993,-0.173419 1.51993,-0.173419 3.07056,-0.350342 1.05308,-0.08935 2.10616,-0.178696 3.19116,-0.270752 1.08926,-0.07041 2.17851,-0.14083 3.30078,-0.213379 1.13437,-0.05462 2.26875,-0.109248 3.4375,-0.165527 0.58918,-0.02415 1.17836,-0.0483 1.7854,-0.07318 0.60191,-0.02145 1.20382,-0.0429 1.82398,-0.065 0.61325,-0.01825 1.22651,-0.03651 1.85835,-0.05531 0.93443,-0.02217 0.93443,-0.02217 1.88774,-0.04478 0.62936,-0.01055 1.25872,-0.0211 1.90715,-0.03197 0.63932,-0.0073 1.27864,-0.01451 1.93733,-0.02199 0.6502,-0.0043 1.3004,-0.0086 1.97031,-0.01309 0.66569,-0.0024 1.33138,-0.0047 2.01724,-0.0072 0.69026,-0.0023 1.38053,-0.0046 2.09171,-0.0069 1.05349,1.66e-4 1.05349,1.66e-4 2.12826,3.35e-4 0.70575,0.0041 1.41149,0.0082 2.13863,0.01241 0.70666,0.0084 1.41332,0.01679 2.1414,0.02544 1.05643,0.01966 1.05643,0.01966 2.1342,0.03972 0.69564,0.01912 1.39127,0.03824 2.10799,0.05794 0.68336,0.02578 1.36673,0.05156 2.0708,0.07813 0.65984,0.03481 1.31968,0.06961 1.99951,0.105469 0.61859,0.0477 1.23718,0.09539 1.87451,0.144531 0.8897,0.08508 0.8897,0.08508 1.79737,0.171875 1.13953,0.132774 2.27906,0.265547 3.45312,0.402344 1.09812,0.151304 2.19624,0.302607 3.32764,0.458496 1.60125,0.252576 1.60125,0.252576 3.23486,0.510254 1.06622,0.182563 2.13243,0.365127 3.23096,0.553223 1.04011,0.191264 2.08022,0.382529 3.15185,0.579589 1.0045,0.197549 2.00901,0.395098 3.04395,0.598633 0.95229,0.191748 1.90459,0.383496 2.88574,0.581055 0.86464,0.165967 1.72928,0.331934 2.62012,0.50293 1.23605,0.242182 1.23605,0.242182 2.49707,0.489257 0.81662,0.170721 1.63324,0.341441 2.47461,0.517334 0.81533,0.182483 1.63066,0.364966 2.4707,0.552979 1.23073,0.297894 1.23073,0.297894 2.48633,0.601807 0.85787,0.222927 1.71574,0.445854 2.59961,0.675537 0.91104,0.251206 1.82209,0.502412 2.76074,0.76123 1.01997,0.296646 2.03994,0.593291 3.09082,0.898926 0.59124,0.177669 1.18247,0.355338 1.79163,0.538391 0.62982,0.192453 1.25965,0.384906 1.90857,0.583191 0.65443,0.202932 1.30886,0.405863 1.98312,0.614949 0.67427,0.21198 1.34854,0.42397 2.04324,0.64238 0.68467,0.21823 1.36933,0.43645 2.07474,0.6613 0.69512,0.22432 1.39023,0.44864 2.10641,0.67976 0.70438,0.22999 1.40875,0.45997 2.13447,0.69693 0.70795,0.23367 1.41591,0.46735 2.14532,0.7081 0.7049,0.23488 1.40979,0.46976 2.13605,0.71176 0.70356,0.23716 1.40713,0.47432 2.13202,0.71866 0.70206,0.23978 1.40413,0.47956 2.12747,0.72661 1.04944,0.36313 1.04944,0.36313 2.12009,0.7336 0.69777,0.24446 1.39555,0.48892 2.11447,0.74079 0.69119,0.24603 1.38237,0.49205 2.09451,0.74553 0.68167,0.24694 1.36334,0.49388 2.06567,0.74829 0.66733,0.24742 1.33467,0.49484 2.02222,0.74976 0.64542,0.24742 1.29083,0.49484 1.95581,0.74976 0.62882,0.24693 1.25764,0.49387 1.90552,0.74829 0.61478,0.24586 1.22955,0.49171 1.86296,0.74502 0.60145,0.24463 1.20291,0.48926 1.82259,0.74131 0.59069,0.24358 1.18139,0.48716 1.78999,0.73812 0.57695,0.24095 1.1539,0.48189 1.74834,0.73014 0.56183,0.23749 1.12367,0.47498 1.70254,0.71966 0.54442,0.23189 1.08884,0.46378 1.64975,0.7027 1.02827,0.43973 2.05654,0.87946 3.11597,1.33252 0.97106,0.42394 1.94213,0.84788 2.94262,1.28467 0.92885,0.41612 1.8577,0.83225 2.8147,1.26098 1.33116,0.61718 1.33116,0.61718 2.68921,1.24683 0.84554,0.41339 1.69109,0.82677 2.56226,1.25269 1.23375,0.61935 1.23375,0.61935 2.49243,1.25122 0.81299,0.4125 1.62599,0.825 2.46362,1.25 1.22844,0.61681 1.22844,0.61681 2.48169,1.24609 1.27001,0.60908 1.27001,0.60908 2.56567,1.23047 0.86907,0.40992 1.73814,0.81984 2.63355,1.24219 0.88647,0.41797 1.77294,0.83595 2.68628,1.2666 0.92466,0.43667 1.84932,0.87334 2.802,1.32324 0.9962,0.47405 1.99241,0.94811 3.0188,1.43652 1.02505,0.49146 2.05009,0.98291 3.1062,1.48926 1.54688,0.74758 1.54688,0.74758 3.125,1.51026 1.01063,0.49548 2.02125,0.99096 3.0625,1.50146 0.94102,0.47357 1.88203,0.94714 2.85156,1.43506 0.91524,0.46873 1.83047,0.93747 2.77344,1.42041 0.9158,0.47429 1.8316,0.94859 2.77515,1.43725 0.91982,0.48091 1.83965,0.96181 2.78735,1.45728 0.93336,0.49057 1.86672,0.98114 2.82837,1.48657 0.95511,0.50459 1.91023,1.00918 2.89429,1.52905 0.97984,0.52014 1.95969,1.04028 2.96923,1.57618 0.50606,0.26901 1.01212,0.53802 1.53351,0.81518 0.52374,0.2782 1.04749,0.55639 1.5871,0.84302 0.5521,0.29238 1.1042,0.58475 1.67303,0.88599 0.85384,0.45185 0.85384,0.45185 1.72492,0.91284 0.57954,0.30687 1.15909,0.61374 1.75619,0.92991 0.58722,0.31124 1.17444,0.62247 1.77945,0.94313 0.88482,0.46982 0.88482,0.46982 1.78751,0.94912 0.88926,0.47293 0.88926,0.47293 1.79648,0.95543 0.59514,0.31703 1.19029,0.63407 1.80346,0.96072 0.59531,0.31774 1.19062,0.63549 1.80396,0.96286 0.59353,0.3175 1.18707,0.635 1.79858,0.96213 0.59048,0.31663 1.18095,0.63327 1.78931,0.9595 0.58569,0.31494 1.17138,0.62988 1.77481,0.95436 0.58027,0.31292 1.16054,0.62583 1.75839,0.94823 0.5752,0.31102 1.15039,0.62204 1.74302,0.94249 0.84819,0.46038 0.84819,0.46038 1.71353,0.93007 0.55323,0.30162 1.10646,0.60324 1.67645,0.914 0.5349,0.29344 1.0698,0.58688 1.62091,0.88922 0.99403,0.55252 1.98806,1.10505 3.01221,1.67432 0.9357,0.52642 1.87139,1.05284 2.83545,1.59521 0.89734,0.50934 1.79469,1.01868 2.71923,1.54346 1.2972,0.74226 1.2972,0.74226 2.62061,1.49951 0.84675,0.4871 1.69351,0.97421 2.56592,1.47607 0.82258,0.47583 1.64516,0.95165 2.49267,1.4419 0.79648,0.46326 1.59296,0.92651 2.41358,1.40381 0.77231,0.45069 1.54462,0.90137 2.34033,1.36572 0.74782,0.43651 1.49563,0.87302 2.26611,1.32275 0.72816,0.42588 1.45632,0.85175 2.20655,1.29053 0.71277,0.4179 1.42554,0.8358 2.15991,1.26636 0.69875,0.41097 1.3975,0.82194 2.11743,1.24536 1.02783,0.60775 1.02783,0.60775 2.07642,1.22778 0.67861,0.40179 1.35722,0.80357 2.05639,1.21753 0.67579,0.39993 1.35158,0.79987 2.04785,1.21192 1.02433,0.60279 1.02433,0.60279 2.06934,1.21777 0.70608,0.4096 1.41217,0.8192 2.13965,1.24121 0.71446,0.41282 1.42892,0.82565 2.16504,1.25098 1.07085,0.62044 1.07085,0.62044 2.16333,1.25342 0.7118,0.41395 1.42361,0.8279 2.15698,1.25439 0.706,0.41266 1.41201,0.82532 2.1394,1.25049 1.04668,0.61851 1.04668,0.61851 2.11451,1.24951 0.68852,0.4125 1.37704,0.825 2.08642,1.25 0.67144,0.4125 1.34288,0.825 2.03467,1.25 0.64179,0.4125 1.28358,0.825 1.94482,1.25 0.93804,0.61875 0.93804,0.61875 1.89503,1.25 0.92595,0.61875 0.92595,0.61875 1.8706,1.25 0.91677,0.61875 0.91677,0.61875 1.85205,1.25 0.6086,0.4125 1.2172,0.825 1.84424,1.25 0.60957,0.4125 1.21913,0.825 1.84717,1.25 0.61247,0.4125 1.22493,0.825 1.85596,1.25 0.62374,0.4125 1.24749,0.825 1.89013,1.25 0.64824,0.4125 1.29648,0.825 1.96436,1.25 0.66016,0.4125 1.32032,0.825 2.00049,1.25 0.66483,0.41266 1.32967,0.82532 2.01465,1.25049 0.66676,0.41234 1.33353,0.82468 2.0205,1.24951 0.6629,0.41105 1.32581,0.8221 2.00879,1.24561 0.66097,0.41137 1.32194,0.82274 2.00293,1.24658 0.6592,0.41218 1.31839,0.82435 1.99756,1.24902 0.65694,0.4154 1.31388,0.8308 1.99072,1.25879 0.65565,0.42313 1.3113,0.84627 1.98682,1.28223 0.65017,0.42506 1.30034,0.85013 1.97022,1.28808 0.64163,0.42362 1.28326,0.84724 1.94433,1.28369 0.63068,0.41943 1.26135,0.83886 1.91113,1.271 0.6165,0.41041 1.23299,0.82081 1.86817,1.24365 0.60167,0.40428 1.20334,0.80857 1.82324,1.2251 0.5854,0.39832 1.17079,0.79664 1.77393,1.20703 0.56831,0.39574 1.13663,0.79149 1.72216,1.19922 0.55156,0.4009 1.10312,0.8018 1.67139,1.21484 0.52997,0.39317 1.05993,0.78633 1.60596,1.19141 0.50491,0.37496 1.00982,0.74991 1.53003,1.13623 0.47606,0.35723 0.95213,0.71446 1.44262,1.08252 0.85079,0.65227 1.70157,1.30453 2.57813,1.97656 0.71672,0.46149 1.43344,0.92297 2.17187,1.39844 0.99,0 1.98,0 3,0 0.57879,-0.75023 1.15758,-1.50047 1.75391,-2.27344 0.29649,-0.49008 0.59297,-0.98017 0.89844,-1.4851 0.30035,-0.53344 0.6007,-1.06687 0.91015,-1.61646 0.30938,-0.54439 0.61875,-1.08877 0.9375,-1.64966 0.30036,-0.5526 0.60071,-1.10521 0.91016,-1.67456 0.28118,-0.55736 0.56235,-1.11472 0.85205,-1.68896 0.24347,-0.5319 0.48694,-1.0638 0.73779,-1.61182 0.30809,-0.89332 0.61618,-1.78664 0.9336,-2.70703 0.28037,-1.22783 0.28037,-1.22783 0.5664,-2.48047 0.11215,-0.81082 0.2243,-1.62164 0.33985,-2.45703 0.0793,-1.16596 0.0793,-1.16596 0.16015,-2.35547 0.0425,-0.72574 0.0851,-1.45148 0.12891,-2.19922 -0.0219,-0.71801 -0.0438,-1.43601 -0.0664,-2.17578 -0.1173,-0.73219 -0.23461,-1.46438 -0.35547,-2.21875 -0.23326,-0.79391 -0.46658,-1.58798 -0.70698,-2.4061 -0.388,-0.93844 -0.77601,-1.87688 -1.17578,-2.84375 -0.51949,-1.00031 -1.03898,-2.00063 -1.57422,-3.03125 -0.30083,-0.50829 -0.60167,-1.01659 -0.91162,-1.54028 -0.33209,-0.50878 -0.66419,-1.01756 -1.00634,-1.54175 -0.36529,-0.50741 -0.73058,-1.01482 -1.10694,-1.5376 -0.60642,-0.74516 -0.60642,-0.74516 -1.2251,-1.50537 -0.45455,-0.47228 -0.90911,-0.94456 -1.37744,-1.43115 -0.73549,-0.68957 -0.73549,-0.68957 -1.48584,-1.39307 -0.51635,-0.45375 -1.0327,-0.9075 -1.56469,-1.375 -0.5394,-0.44988 -1.07879,-0.89975 -1.63453,-1.36328 -0.55808,-0.45117 -1.11616,-0.90234 -1.69116,-1.36719 -0.57113,-0.44988 -1.14227,-0.89975 -1.73071,-1.36328 -0.58072,-0.44779 -1.16145,-0.89557 -1.75977,-1.35693 -0.57943,-0.44553 -1.15886,-0.89106 -1.75586,-1.3501 -0.56138,-0.44167 -1.12277,-0.88333 -1.70117,-1.33838 -0.55752,-0.44134 -1.11504,-0.88268 -1.68945,-1.3374 -0.56211,-0.444 -1.12422,-0.888 -1.70337,-1.34546 -0.56711,-0.44674 -1.13421,-0.89348 -1.71851,-1.35376 -0.57419,-0.44867 -1.14839,-0.89735 -1.73999,-1.35962 -0.877,-0.68437 -0.877,-0.68437 -1.77172,-1.38257 -0.59603,-0.46632 -1.19206,-0.93262 -1.80616,-1.41308 -0.61697,-0.48501 -1.23395,-0.97002 -1.86963,-1.46973 -0.65436,-0.51853 -1.30872,-1.03705 -1.98291,-1.57129 -0.67208,-0.53593 -1.34417,-1.07185 -2.03662,-1.62402 -0.677,-0.54318 -1.354,-1.08636 -2.05151,-1.646 -0.67781,-0.54737 -1.35561,-1.09473 -2.05396,-1.65869 -0.672,-0.54608 -1.344,-1.09216 -2.03637,-1.65479 -0.66089,-0.54187 -1.32177,-1.08376 -2.00269,-1.64208 -0.64614,-0.5356 -1.29228,-1.07122 -1.95801,-1.62305 -0.61971,-0.52143 -1.23943,-1.04285 -1.87793,-1.58008 -0.57588,-0.49564 -1.15177,-0.99129 -1.74511,-1.50195 -0.5456,-0.47889 -1.09119,-0.95778 -1.65332,-1.45117 -0.52707,-0.47245 -1.05413,-0.94489 -1.59717,-1.43164 -0.74468,-0.67579 -0.74468,-0.67579 -1.5044,-1.36523 -0.44359,-0.39896 -0.88719,-0.79793 -1.34423,-1.20898 -0.64945,-0.60039 -0.64945,-0.60039 -1.31202,-1.2129 -0.44376,-0.42877 -0.88752,-0.85754 -1.34472,-1.29931 -0.49468,-0.50452 -0.98936,-1.00903 -1.49903,-1.52882 -0.92377,-0.99459 -0.92377,-0.99459 -1.86621,-2.00928 -0.66805,-0.742 -1.33611,-1.48402 -2.02442,-2.24852 -1.0248,-1.16789 -1.0248,-1.16789 -2.07031,-2.35938 -0.67289,-0.78633 -1.34578,-1.57265 -2.03906,-2.38281 -0.61102,-0.73477 -1.22203,-1.46953 -1.85156,-2.22656 -0.59039,-0.73219 -1.18078,-1.46438 -1.78907,-2.21875 -0.58966,-0.75515 -1.17933,-1.5103 -1.78686,-2.28833 -0.60143,-0.78915 -1.20286,-1.5783 -1.82251,-2.39136 -0.64332,-0.85038 -1.28665,-1.70076 -1.94946,-2.5769 -0.65219,-0.88857 -1.30437,-1.77714 -1.97632,-2.69263 -0.64276,-0.91217 -1.28552,-1.82435 -1.94776,-2.76416 -0.92885,-1.40645 -0.92885,-1.40645 -1.87646,-2.84131 -0.85344,-1.44705 -0.85344,-1.44705 -1.72412,-2.92334 -0.53835,-0.97791 -1.07669,-1.95583 -1.63135,-2.96338 -0.77706,-1.46905 -0.77706,-1.46905 -1.56982,-2.96777 -0.74855,-1.46422 -0.74855,-1.46422 -1.51221,-2.95801 -0.48614,-0.9697 -0.97228,-1.93939 -1.47314,-2.93848 -0.46906,-0.94714 -0.93812,-1.894279 -1.42139,-2.870119 -0.4494,-0.915073 -0.8988,-1.830146 -1.36182,-2.772949 -0.43103,-0.859966 -0.86206,-1.719932 -1.30615,-2.605957 -0.41427,-0.768442 -0.82854,-1.536885 -1.25537,-2.328613 -0.39397,-0.707534 -0.78794,-1.415069 -1.19385,-2.144043 -0.37077,-0.663142 -0.74153,-1.326284 -1.12353,-2.009522 -0.34725,-0.624631 -0.69449,-1.249262 -1.05225,-1.892822 -0.32404,-0.600784 -0.64808,-1.201567 -0.98193,-1.820557 -0.296,-0.567107 -0.59201,-1.134214 -0.89698,-1.718506 -0.74056,-1.527539 -0.74056,-1.527539 -1.49609,-3.085937 -0.3184,-0.832734 -0.6368,-1.665469 -0.96484,-2.523438 -0.19723,-0.734765 -0.39446,-1.469531 -0.59766,-2.226562 -0.16049,-1.022871 -0.16049,-1.022871 -0.32422,-2.066406 -0.0374,-0.720586 -0.0748,-1.441172 -0.11328,-2.183594 -0.006,-0.916523 -0.0129,-1.833047 -0.0195,-2.777344 0.0477,-0.960351 0.0954,-1.920703 0.14453,-2.910156 0.11473,-0.926836 0.22945,-1.853672 0.34766,-2.808594 0.26103,-1.239433 0.26103,-1.239433 0.52734,-2.503906 0.22559,-0.589102 0.45117,-1.178203 0.68359,-1.785156 0.29004,-0.483399 0.58008,-0.966797 0.87891,-1.464844 0.35063,-0.442148 0.70125,-0.884297 1.0625,-1.339844 0.45375,-0.465351 0.9075,-0.930703 1.375,-1.410156 0.63938,-0.620039 1.27875,-1.240078 1.9375,-1.878906 0.70125,-0.638086 1.4025,-1.276172 2.125,-1.933594 0.6716,-0.583945 1.3432,-1.167891 2.03516,-1.769531 0.62777,-0.46793 1.25554,-0.93586 1.90234,-1.417969 1.485,-0.495 1.485,-0.495 3,-1 0.82371,-0.09023 1.64742,-0.180469 2.49609,-0.273438 1.456,-0.05027 1.456,-0.05027 2.94141,-0.101562 1.07508,0.01418 2.15016,0.02836 3.25781,0.04297 1.63582,0.164355 1.63582,0.164355 3.30469,0.332031 0.9668,0.264258 1.93359,0.528516 2.92969,0.800781 0.95133,0.375117 1.90265,0.750235 2.88281,1.136719 0.99,0.456328 1.98,0.912656 3,1.382812 0.51434,0.263292 1.02867,0.526583 1.55859,0.797852 0.53754,0.291006 1.07508,0.582012 1.62891,0.881836 0.57621,0.3271 1.15242,0.654199 1.74609,0.991211 0.59942,0.350947 1.19884,0.701894 1.81641,1.063476 0.61344,0.366255 1.22687,0.73251 1.85889,1.109864 0.62407,0.378823 1.24814,0.757646 1.89111,1.147949 0.62794,0.387847 1.25587,0.775693 1.90284,1.175293 0.63277,0.390747 1.26553,0.781494 1.91748,1.184082 0.63712,0.389941 1.27424,0.779883 1.93066,1.181641 0.63902,0.378338 1.27808,0.756678 1.93649,1.146483 0.63906,0.34998 1.27811,0.699961 1.93653,1.060547 0.63712,0.335801 1.27424,0.671601 1.93066,1.017578 0.63261,0.329355 1.26522,0.658711 1.91699,0.998047 0.6281,0.325488 1.2562,0.650976 1.90332,0.986328 0.93828,0.4921 0.93828,0.4921 1.89551,0.994141 0.61456,0.326777 1.22912,0.653554 1.86231,0.990234 0.59973,0.324199 1.19947,0.648398 1.81738,0.982422 0.57331,0.320332 1.14662,0.640664 1.7373,0.970703 0.52691,0.312598 1.05381,0.625195 1.59668,0.947266 0.50177,0.311308 1.00354,0.622617 1.52051,0.943359 0.49025,0.314854 0.9805,0.629707 1.4856,0.954102 0.4817,0.319365 0.96341,0.63873 1.45971,0.967773 0.47849,0.324521 0.95697,0.649043 1.44996,0.983398 0.7228,0.503218 0.7228,0.503218 1.4602,1.016602 0.48872,0.349336 0.97743,0.698672 1.48096,1.058594 0.51031,0.372539 1.02061,0.745078 1.54638,1.128906 0.55543,0.411211 1.11085,0.822422 1.68311,1.246094 0.57766,0.434414 1.15532,0.868828 1.75049,1.316406 0.58628,0.448513 1.17256,0.897026 1.77661,1.359131 0.88595,0.68848 0.88595,0.68848 1.78979,1.390869 0.58613,0.462209 1.17225,0.924419 1.77613,1.400635 0.58177,0.467204 1.16354,0.934409 1.76294,1.415771 0.8648,0.707937 0.8648,0.707937 1.74707,1.430176 0.56557,0.475503 1.13115,0.951006 1.71386,1.440918 0.54753,0.47937 1.09506,0.95874 1.65918,1.452637 0.79906,0.717605 0.79906,0.717605 1.61426,1.449707 0.51829,0.472683 1.03657,0.945366 1.57056,1.432373 0.50523,0.467043 1.01046,0.934087 1.531,1.415283 0.49686,0.463821 0.99371,0.927642 1.50562,1.405518 0.47897,0.448835 0.95793,0.89767 1.45142,1.360107 0.6857,0.64292 0.6857,0.64292 1.38525,1.298828 0.4233,0.391231 0.84659,0.782461 1.28271,1.185547 0.70512,0.613594 1.41024,1.227187 2.13672,1.859375 0.63551,0.541406 1.27102,1.082813 1.92578,1.640625 0.61231,0.528516 1.22461,1.057035 1.85547,1.601565 0.68707,0.62649 1.37414,1.25297 2.08203,1.89844 0.6799,0.66661 0.6799,0.66661 1.37354,1.34668 0.49162,0.49145 0.98323,0.98291 1.48975,1.48926 0.49814,0.5008 0.99628,1.0016 1.50952,1.51758 0.49572,0.50209 0.99145,1.00418 1.50219,1.52148 0.47704,0.48919 0.95407,0.97839 1.44556,1.48242 0.44851,0.45697 0.89703,0.91395 1.35913,1.38477 0.76571,0.74508 1.53141,1.49015 2.32031,2.25781 0.66,0.33 1.32,0.66 2,1 0.044,-0.53405 0.088,-1.06811 0.13335,-1.61835 -0.0821,-1.23064 -0.0821,-1.23064 -0.16582,-2.48614 -0.057,-0.92942 -0.11399,-1.85882 -0.17271,-2.81638 -0.0728,-1.03158 -0.14559,-2.06316 -0.2206,-3.126 -0.067,-1.06164 -0.13391,-2.12328 -0.20289,-3.21708 -0.0702,-1.11028 -0.14034,-2.220553 -0.21263,-3.364473 -0.0381,-0.576627 -0.0762,-1.153254 -0.11551,-1.747354 -0.0587,-0.879373 -0.0587,-0.879373 -0.11856,-1.776511 -0.0394,-0.592432 -0.0787,-1.184865 -0.11929,-1.79525 -0.0389,-0.594814 -0.0778,-1.189628 -0.11784,-1.802467 -0.0371,-0.591108 -0.0742,-1.182216 -0.11246,-1.791237 -0.0363,-0.590821 -0.0726,-1.181642 -0.11001,-1.790367 -0.036,-0.592142 -0.072,-1.184285 -0.10912,-1.794371 -0.0536,-0.889212 -0.0536,-0.889212 -0.10835,-1.796388 -0.0536,-0.890247 -0.0536,-0.890247 -0.10828,-1.798479 -0.0534,-0.890638 -0.0534,-0.890638 -0.10796,-1.799269 -0.0354,-0.593194 -0.0709,-1.186388 -0.10739,-1.797558 -0.0532,-0.890762 -0.0532,-0.890762 -0.10752,-1.799519 -0.0359,-0.597114 -0.0718,-1.194228 -0.10886,-1.809436 -0.0358,-0.595319 -0.0716,-1.190638 -0.10849,-1.803997 -0.0353,-0.589687 -0.0706,-1.179373 -0.10689,-1.786929 -0.0519,-0.874481 -0.0519,-0.874481 -0.10496,-1.76663 -0.0666,-1.138846 -0.13322,-2.277693 -0.20184,-3.451049 -0.0612,-1.077375 -0.12234,-2.154749 -0.18537,-3.264771 -0.0521,-0.970382 -0.10429,-1.940764 -0.15802,-2.940552 -0.046,-0.902948 -0.092,-1.805896 -0.13934,-2.736206 -0.0416,-0.85779 -0.0831,-1.715581 -0.12596,-2.599365 -0.0369,-0.818958 -0.0738,-1.637915 -0.11183,-2.48169 -0.0321,-0.795754 -0.0642,-1.591508 -0.0973,-2.411376 -0.0287,-0.766912 -0.0574,-1.533824 -0.087,-2.323975 -0.0257,-0.736417 -0.0513,-1.472835 -0.0777,-2.231567 -0.0257,-0.709589 -0.0513,-1.419178 -0.0778,-2.150269 -0.0312,-0.685096 -0.0625,-1.370193 -0.0946,-2.07605 -0.0298,-0.66294 -0.0595,-1.325881 -0.0902,-2.008911 -0.0349,-0.966253 -0.0349,-0.966253 -0.0705,-1.952026 -0.0163,-0.624591 -0.0326,-1.249182 -0.0494,-1.892701 -0.009,-0.601065 -0.0182,-1.202131 -0.0275,-1.821411 0.006,-0.885525 0.006,-0.885525 0.0119,-1.78894 0.0195,-0.585114 0.039,-1.170227 0.0591,-1.773071 0.045,-0.597924 0.0899,-1.195848 0.13623,-1.81189 0.13076,-0.963594 0.13076,-0.963594 0.26416,-1.946655 0.16701,-0.977251 0.16701,-0.977251 0.3374,-1.974243 0.12511,-0.63866 0.25022,-1.27732 0.37912,-1.935334 0.1327,-0.617209 0.26541,-1.234418 0.40213,-1.870331 0.3889,-1.683435 0.3889,-1.683435 0.78565,-3.400878 0.27441,-0.947945 0.54882,-1.895889 0.83154,-2.872559 0.2757,-0.655327 0.5514,-1.310654 0.83545,-1.98584 0.30181,-0.499673 0.60361,-0.999346 0.91455,-1.51416 0.7425,-0.825 1.485,-1.65 2.25,-2.5 0.56332,-0.5426953 1.12664,-1.0853906 1.70704,-1.6445313 0.6123,-0.5504296 1.2246,-1.1008593 1.85546,-1.6679687 0.57879,-0.4911328 1.15758,-0.9822656 1.75391,-1.4882812 0.55559,-0.3957422 1.11117,-0.7914844 1.68359,-1.1992188 1.485,-0.495 1.485,-0.495 3,-1 z m 71,228.999995 c -0.78375,0.22687 -1.5675,0.45376 -2.375,0.6875 -0.68062,0.30937 -1.36125,0.61875 -2.0625,0.9375 -0.62003,0.3661 -1.24007,0.73219 -1.8789,1.10938 -0.55559,0.41765 -1.11117,0.83531 -1.6836,1.26562 -0.50402,0.45891 -1.00804,0.91781 -1.52734,1.39063 -0.44473,0.48984 -0.88945,0.97969 -1.34766,1.48437 -0.38414,0.51691 -0.76828,1.03383 -1.16406,1.56641 -0.31711,0.51433 -0.63422,1.02867 -0.96094,1.55859 -0.4125,0.92812 -0.825,1.85625 -1.25,2.8125 -0.2475,1.05187 -0.495,2.10375 -0.75,3.1875 -0.15726,0.66902 -0.31453,1.33805 -0.47656,2.02734 -0.13148,0.73348 -0.26297,1.46696 -0.39844,2.22266 -0.10634,1.14469 -0.10634,1.14469 -0.21484,2.3125 0.0297,0.80437 0.0593,1.60875 0.0898,2.4375 0.30744,1.29937 0.30744,1.29937 0.62109,2.625 0.466,1.29937 0.466,1.29937 0.94141,2.625 0.37383,0.83146 0.74766,1.66289 1.13281,2.51953 0.64582,1.10408 0.64582,1.10408 1.30469,2.23047 0.7077,0.81018 0.7077,0.81018 1.42969,1.63673 0.49758,0.42926 0.99515,0.85851 1.50781,1.30077 0.51176,0.3648 1.02352,0.72961 1.55078,1.10548 0.74831,0.47373 0.74831,0.47373 1.51172,0.95702 1.29938,0.86625 1.29938,0.86625 2.625,1.75 0.78375,0.41251 1.5675,0.825 2.375,1.25 0.59813,0.22688 1.19625,0.45376 1.8125,0.6875 0.72188,0.10312 1.44375,0.20625 2.1875,0.3125 0.82952,0.0967 0.82952,0.0967 1.67579,0.19531 0.64324,0.0387 1.28648,0.0773 1.94921,0.11719 0.68965,-0.0103 1.3793,-0.0206 2.08985,-0.0312 0.7541,-0.0928 1.5082,-0.18568 2.28515,-0.2813 0.84692,-0.23719 1.69383,-0.47438 2.56641,-0.71875 1.29744,-0.47953 1.29744,-0.47953 2.62109,-0.96875 0.84047,-0.36738 1.68094,-0.73477 2.54688,-1.11327 0.74766,-0.39575 1.49531,-0.79149 2.26562,-1.19923 0.81211,-0.57814 0.81211,-0.57814 1.64063,-1.16797 0.64195,-0.59748 0.64195,-0.59748 1.29687,-1.20703 0.68063,-0.86624 1.36125,-1.7325 2.0625,-2.625 0.86625,-1.26844 0.86625,-1.26844 1.75,-2.5625 0.33452,-0.75023 0.33452,-0.75023 0.67579,-1.51562 0.18949,-0.63421 0.37898,-1.26844 0.57421,-1.92188 0.17918,-0.90233 0.35836,-1.80469 0.54297,-2.73437 0.13019,-1.01579 0.26039,-2.03157 0.39453,-3.07813 0.0909,-1.56041 0.0909,-1.56041 0.18359,-3.15234 -0.0599,-1.50241 -0.0599,-1.50241 -0.12109,-3.03516 -0.19465,-0.84691 -0.3893,-1.69383 -0.58984,-2.56641 -0.30036,-0.76183 -0.6007,-1.52367 -0.91016,-2.30859 -0.37511,-0.71027 -0.75023,-1.42055 -1.13671,-2.15234 -0.67483,-0.97646 -0.67483,-0.97646 -1.36329,-1.97266 -0.7831,-0.89912 -0.7831,-0.89912 -1.58203,-1.81641 -0.57105,-0.53496 -1.14211,-1.06991 -1.73047,-1.62109 -0.91652,-0.69803 -0.91652,-0.69803 -1.85156,-1.41016 -0.60586,-0.38026 -1.21172,-0.76054 -1.83594,-1.15234 -1.05187,-0.45375 -2.10375,-0.9075 -3.1875,-1.375 -0.57234,-0.12375 -1.14468,-0.2475 -1.73437,-0.375 -1.02867,-0.12375 -1.02867,-0.12375 -2.07813,-0.25 -1.39992,-0.12375 -1.39992,-0.12375 -2.82812,-0.25 -1.53914,-0.0619 -1.53914,-0.0619 -3.10938,-0.125 -1.03125,0.0206 -2.0625,0.0412 -3.125,0.0625 -1.45406,0.15469 -1.45406,0.15469 -2.9375,0.3125 z"
     style="fill:#020404"
     id="path1" />
  <path
     d="m 274.46899,472.45312 c 0.66516,-0.0954 1.33032,-0.19078 2.01563,-0.28906 0.67547,0.0335 1.35094,0.067 2.04687,0.10156 0.66258,0.14309 1.32516,0.28618 2.00782,0.4336 0.63679,0.24879 1.27359,0.49758 1.92968,0.7539 0.57493,0.34161 1.14985,0.68321 1.74219,1.03516 0.55946,0.44215 1.11891,0.8843 1.69531,1.33984 0.56848,0.53625 1.13696,1.0725 1.72266,1.625 0.60715,0.66001 1.2143,1.32 1.83984,2 0.69997,0.84563 1.39993,1.69126 2.1211,2.5625 0.36811,0.45714 0.73621,0.91427 1.11548,1.38526 0.37568,0.47099 0.75136,0.94198 1.13842,1.42724 0.56836,0.72003 0.56836,0.72003 1.1482,1.45459 0.38164,0.47647 0.76328,0.95294 1.15649,1.44385 0.57573,0.69948 0.57573,0.69948 1.16309,1.41309 0.38188,0.43345 0.76377,0.86689 1.15722,1.31347 0.74508,0.69352 1.49016,1.38704 2.25782,2.10157 0.73992,0.62648 1.47984,1.25297 2.24218,1.89843 0.73735,0.63036 1.47469,1.26071 2.23438,1.91016 0.74766,0.68965 1.49531,1.3793 2.26562,2.08984 0.39252,0.4175 0.78504,0.83499 1.18946,1.26514 0.39638,0.44747 0.79277,0.89493 1.20117,1.35596 0.39252,0.46044 0.78504,0.92087 1.18945,1.39526 0.57911,0.70347 0.57911,0.70347 1.16992,1.42114 0.37577,0.46834 0.75153,0.93667 1.13868,1.41919 0.36158,0.46495 0.72316,0.9299 1.0957,1.40894 0.66516,0.90234 1.33031,1.80469 2.01562,2.73437 0.54141,0.79922 1.08282,1.59844 1.64063,2.42188 0.44859,0.74766 0.89719,1.49531 1.35937,2.26562 0.37125,0.72317 0.7425,1.44633 1.125,2.19141 0.28875,0.69996 0.5775,1.39992 0.875,2.12109 0.30938,1.03448 0.30938,1.03448 0.625,2.08985 0.12375,0.6716 0.2475,1.3432 0.375,2.03515 0.0438,0.6484 0.0877,1.2968 0.13282,1.96485 -0.0438,0.63035 -0.0877,1.2607 -0.13282,1.91015 -0.14695,0.62004 -0.2939,1.24008 -0.44531,1.87891 -0.22429,0.59684 -0.44859,1.19367 -0.67969,1.80859 -0.28617,0.56977 -0.57234,1.13954 -0.86718,1.72657 -0.33258,0.52336 -0.66516,1.04672 -1.00782,1.58593 -0.7425,0.84563 -1.485,1.69125 -2.25,2.5625 -0.43465,0.39679 -0.86931,0.79358 -1.31713,1.2024 -0.47285,0.40758 -0.94569,0.81517 -1.43287,1.2351 -0.50184,0.45077 -1.00369,0.90154 -1.52075,1.36597 -0.54616,0.48122 -1.09232,0.96245 -1.65503,1.45825 -0.92595,0.79169 -0.92595,0.79169 -1.8706,1.59937 -0.64469,0.52022 -1.28939,1.04043 -1.95362,1.57641 -0.62793,0.44739 -1.25586,0.89478 -1.90283,1.35572 -0.63921,0.42402 -1.27843,0.84804 -1.93701,1.28491 -0.66242,0.42571 -1.32483,0.85143 -2.00732,1.29004 -0.68981,0.43538 -1.37962,0.87076 -2.09034,1.31933 -0.73363,0.4689 -1.46727,0.9378 -2.22314,1.4209 -0.75265,0.47986 -1.5053,0.95971 -2.28076,1.4541 -0.75684,0.47825 -1.51368,0.95649 -2.29346,1.44922 -0.74749,0.47051 -1.49499,0.94102 -2.26514,1.42578 -0.71526,0.44989 -1.43053,0.89977 -2.16748,1.36329 -0.69625,0.43699 -1.39251,0.87398 -2.10986,1.32421 -0.68264,0.42741 -1.36528,0.85482 -2.0686,1.29517 -0.66959,0.41822 -1.33918,0.83644 -2.02906,1.26733 -0.66249,0.41242 -1.32499,0.82484 -2.00756,1.24976 -0.64462,0.40098 -1.28923,0.80196 -1.95337,1.21509 -0.62101,0.38656 -1.24202,0.77311 -1.88184,1.17138 -0.58813,0.36755 -1.17627,0.73509 -1.78223,1.11377 -0.53915,0.34048 -1.0783,0.68095 -1.63378,1.03174 -0.75749,0.48123 -0.75749,0.48123 -1.53028,0.97217 -0.93586,0.59684 -1.87172,1.19367 -2.83594,1.80859 -0.85593,0.54528 -1.71187,1.09055 -2.59375,1.65235 -0.79406,0.5066 -1.58812,1.0132 -2.40625,1.53515 -1.16015,0.74443 -1.16015,0.74443 -2.34375,1.50392 -0.71156,0.45245 -1.42312,0.90491 -2.15625,1.37108 -0.91265,0.58395 -0.91265,0.58395 -1.84375,1.17969 -0.54656,0.31195 -1.09312,0.6239 -1.65625,0.94531 -1.485,0.495 -1.485,0.495 -3,1 -0.9655,0.0786 -1.93101,0.15728 -2.92578,0.23829 -1.11761,0.0245 -2.23523,0.049 -3.38672,0.0742 -0.5845,7.3e-4 -1.16901,10e-4 -1.77124,0.002 -0.57564,-0.0136 -1.15129,-0.0272 -1.74438,-0.0413 -1.04672,-0.09 -2.09344,-0.18021 -3.17188,-0.27319 -0.67546,-0.21398 -1.35093,-0.42796 -2.04687,-0.64843 -0.50016,-0.30164 -1.00031,-0.60328 -1.51563,-0.91407 -0.80437,-0.80437 -1.60875,-1.60874 -2.4375,-2.4375 -0.38543,-0.47437 -0.77085,-0.94875 -1.16796,-1.4375 -0.35707,-0.53625 -0.71414,-1.0725 -1.08204,-1.625 -0.28979,-0.59006 -0.57959,-1.18013 -0.87817,-1.78808 -0.43155,-1.06396 -0.43155,-1.06396 -0.87183,-2.14942 -0.18627,-0.69254 -0.37253,-1.38509 -0.56445,-2.09863 -0.15404,-0.79761 -0.30808,-1.59521 -0.4668,-2.41699 -0.16661,-0.97074 -0.33322,-1.94149 -0.50488,-2.94165 -0.0792,-0.55407 -0.15831,-1.10813 -0.23987,-1.67899 -0.0739,-0.61503 -0.14784,-1.23006 -0.224,-1.86374 -0.0652,-0.70115 -0.13043,-1.40231 -0.19763,-2.12472 -0.0892,-1.136 -0.0892,-1.136 -0.1803,-2.29495 -0.0556,-0.79491 -0.1113,-1.58981 -0.16864,-2.4088 -0.0517,-0.8236 -0.10332,-1.64719 -0.15655,-2.49574 -0.0476,-0.83693 -0.0953,-1.67386 -0.14435,-2.53615 -0.0452,-0.8511 -0.0904,-1.7022 -0.1369,-2.57909 -0.0648,-1.29369 -0.0648,-1.29369 -0.13086,-2.61352 -0.0667,-1.30409 -0.0667,-1.30409 -0.13477,-2.63453 -0.0516,-0.8747 -0.10312,-1.74941 -0.15625,-2.65063 -0.0773,-1.30312 -0.0773,-1.30312 -0.15625,-2.63257 -0.0452,-0.85592 -0.0904,-1.71184 -0.1369,-2.5937 -0.0425,-0.82824 -0.085,-1.65648 -0.12872,-2.50981 -0.0478,-0.77728 -0.0956,-1.55456 -0.14484,-2.3554 -0.0337,-0.7447 -0.0675,-1.4894 -0.10223,-2.25666 -0.0118,-0.71583 -0.0235,-1.43166 -0.0356,-2.16918 0.0366,-0.7077 0.0731,-1.4154 0.11079,-2.14455 0.13184,-0.74351 0.26367,-1.48702 0.39949,-2.25306 0.17312,-0.71345 0.34623,-1.4269 0.52459,-2.16197 0.17507,-0.63545 0.35015,-1.2709 0.53053,-1.9256 0.17998,-0.54759 0.35996,-1.09518 0.54539,-1.65937 0.34418,-0.7541 0.68836,-1.5082 1.04297,-2.28515 0.3777,-0.58652 0.75539,-1.17305 1.14453,-1.77735 0.4486,-0.66257 0.89719,-1.32515 1.35938,-2.00781 0.47953,-0.63679 0.95906,-1.27359 1.45312,-1.92969 0.45891,-0.57492 0.91782,-1.14984 1.39063,-1.74218 0.51047,-0.55946 1.02094,-1.11891 1.54687,-1.69532 0.89139,-0.85078 0.89139,-0.85078 1.80079,-1.71875 1.11955,-0.91265 1.11955,-0.91265 2.26171,-1.84375 0.48646,-0.34675 0.97292,-0.69351 1.47413,-1.05078 0.53834,-0.3648 1.07669,-0.72961 1.63134,-1.10547 0.56904,-0.37358 1.13808,-0.74717 1.72437,-1.13207 0.5924,-0.37923 1.18481,-0.75846 1.79516,-1.14918 0.60208,-0.37858 1.20415,-0.75716 1.82447,-1.14721 0.60964,-0.3781 1.21929,-0.7562 1.84741,-1.14575 0.61424,-0.37689 1.22848,-0.75378 1.86133,-1.14209 0.91169,-0.55809 0.91169,-0.55809 1.84179,-1.12745 0.58717,-0.36303 1.17434,-0.72606 1.7793,-1.10009 0.57299,-0.35498 1.14598,-0.70995 1.73633,-1.07569 0.56034,-0.34691 1.12068,-0.69383 1.698,-1.05127 0.82238,-0.50636 0.82238,-0.50636 1.66137,-1.02295 0.54117,-0.32726 1.08233,-0.65452 1.6399,-0.99169 0.52231,-0.31599 1.04462,-0.63197 1.58276,-0.95752 0.95777,-0.59426 1.91555,-1.18852 2.90234,-1.80079 0.76184,-0.54269 1.52368,-1.08539 2.3086,-1.64453 0.66129,-0.46793 1.32258,-0.93586 2.0039,-1.41797 0.6136,-0.37898 1.22719,-0.75796 1.85938,-1.14843 0.60328,-0.26039 1.20656,-0.52078 1.82812,-0.78907 z"
     style="fill:#060808"
     id="path2" />
</svg>
